
<svg height="512pt" viewBox="0 0 512 512" width="512pt" xmlns="http://www.w3.org/2000/svg" xmlns:xlink="http://www.w3.org/1999/xlink"><linearGradient id="a"><stop offset="0" stop-color="#662d91"/><stop offset=".437" stop-color="#3873b3"/><stop offset="1" stop-color="#00c9dd"/></linearGradient><linearGradient id="b" gradientTransform="matrix(1.066829 0 0 -1.066829 0 507.813123)" gradientUnits="userSpaceOnUse" x1="78.6521" x2="514.2419" xlink:href="#a" y1="453.3419" y2="17.752"/><linearGradient id="c" gradientTransform="matrix(1.066829 0 0 -1.066829 0 507.813123)" gradientUnits="userSpaceOnUse" x1="94.6496" x2="530.2395" xlink:href="#a" y1="469.3394" y2="33.7496"/><linearGradient id="d" gradientTransform="matrix(1.066829 0 0 -1.066829 0 507.813123)" gradientUnits="userSpaceOnUse" x1="110.6472" x2="546.2371" xlink:href="#a" y1="485.337" y2="49.7472"/><linearGradient id="e" gradientTransform="matrix(1.066829 0 0 -1.066829 0 507.813123)" gradientUnits="userSpaceOnUse" x1="126.6448" x2="562.2346" xlink:href="#a" y1="501.3346" y2="65.7447"/><linearGradient id="f" gradientTransform="matrix(1.066829 0 0 -1.066829 0 507.813123)" gradientUnits="userSpaceOnUse" x1="142.6423" x2="578.2322" xlink:href="#a" y1="517.3322" y2="81.7423"/><linearGradient id="g" gradientTransform="matrix(1.066829 0 0 -1.066829 0 507.813123)" gradientUnits="userSpaceOnUse" x1="158.6399" x2="594.2297" xlink:href="#a" y1="533.3297" y2="97.7399"/><linearGradient id="h" gradientTransform="matrix(1.066829 0 0 -1.066829 0 507.813123)" gradientUnits="userSpaceOnUse" x1="62.6545" x2="498.2443" xlink:href="#a" y1="437.3443" y2="1.7544"/><linearGradient id="i" gradientTransform="matrix(1.066829 0 0 -1.066829 0 507.813123)" gradientUnits="userSpaceOnUse" x1="46.6569" x2="482.2468" xlink:href="#a" y1="421.3467" y2="-14.2431"/><linearGradient id="j" gradientTransform="matrix(1.066829 0 0 -1.066829 0 507.813123)" gradientUnits="userSpaceOnUse" x1="30.6593" x2="466.2492" xlink:href="#a" y1="405.3492" y2="-30.2407"/><linearGradient id="k" gradientTransform="matrix(1.066829 0 0 -1.066829 0 507.813123)" gradientUnits="userSpaceOnUse" x1="14.6618" x2="450.2516" xlink:href="#a" y1="389.3516" y2="-46.2383"/><linearGradient id="l" gradientTransform="matrix(1.066829 0 0 -1.066829 0 507.813123)" gradientUnits="userSpaceOnUse" x1="-1.3358" x2="434.2541" xlink:href="#a" y1="373.354" y2="-62.2358"/><linearGradient id="m" gradientTransform="matrix(1.066829 0 0 -1.066829 0 507.813123)" gradientUnits="userSpaceOnUse" x1="-17.3334" x2="418.2565" xlink:href="#a" y1="357.3564" y2="-78.2334"/><linearGradient id="n" gradientTransform="matrix(1.066829 0 0 -1.066829 0 507.813123)" gradientUnits="userSpaceOnUse" x1="-33.3309" x2="402.2589" xlink:href="#a" y1="341.3589" y2="-94.231"/><linearGradient id="o" gradientTransform="matrix(1.066829 0 0 -1.066829 0 507.813123)" gradientUnits="userSpaceOnUse" x1="-49.3285" x2="386.2614" xlink:href="#a" y1="325.3613" y2="-110.2285"/><linearGradient id="p" gradientTransform="matrix(1.066829 0 0 -1.066829 0 507.813123)" gradientUnits="userSpaceOnUse" x1="-65.3261" x2="370.2638" xlink:href="#a" y1="309.3637" y2="-126.2261"/><linearGradient id="q" gradientTransform="matrix(1.066829 0 0 -1.066829 0 507.813123)" gradientUnits="userSpaceOnUse" x1="-81.3236" x2="354.2662" xlink:href="#a" y1="293.3662" y2="-142.2237"/><linearGradient id="r" gradientTransform="matrix(1.066829 0 0 -1.066829 0 507.813123)" gradientUnits="userSpaceOnUse" x1="22.6606" x2="458.2504" xlink:href="#a" y1="397.3504" y2="-38.2395"/><linearGradient id="s" gradientTransform="matrix(1.066829 0 0 -1.066829 0 507.813123)" gradientUnits="userSpaceOnUse" x1="-21.3328" x2="414.2571" xlink:href="#a" y1="353.3571" y2="-82.2328"/><linearGradient id="t" gradientTransform="matrix(1.066829 0 0 -1.066829 0 507.813123)" gradientUnits="userSpaceOnUse" x1="-5.3352" x2="430.2547" xlink:href="#a" y1="369.3546" y2="-66.2352"/><linearGradient id="u" gradientTransform="matrix(1.066829 0 0 -1.066829 0 507.813123)" gradientUnits="userSpaceOnUse" x1="10.6624" x2="446.2522" xlink:href="#a" y1="385.3522" y2="-50.2377"/><linearGradient id="v" gradientTransform="matrix(1.066829 0 0 -1.066829 0 507.813123)" gradientUnits="userSpaceOnUse" x1="-37.3303" x2="398.2595" xlink:href="#a" y1="337.3595" y2="-98.2304"/><linearGradient id="w" gradientTransform="matrix(1.066829 0 0 -1.066829 0 507.813123)" gradientUnits="userSpaceOnUse" x1="-53.3279" x2="382.262" xlink:href="#a" y1="321.3619" y2="-114.2279"/><linearGradient id="x" gradientTransform="matrix(1.066829 0 0 -1.066829 0 507.813123)" gradientUnits="userSpaceOnUse" x1="-69.3255" x2="366.2644" xlink:href="#a" y1="305.3643" y2="-130.2255"/><linearGradient id="y" gradientTransform="matrix(1.066829 0 0 -1.066829 0 507.813123)" gradientUnits="userSpaceOnUse" x1="-85.323" x2="350.2668" xlink:href="#a" y1="289.3668" y2="-146.2231"/><linearGradient id="z" gradientTransform="matrix(1.066829 0 0 -1.066829 0 507.813123)" gradientUnits="userSpaceOnUse" x1="-101.3206" x2="334.2693" xlink:href="#a" y1="273.3692" y2="-162.2206"/><linearGradient id="A" gradientTransform="matrix(1.066829 0 0 -1.066829 0 507.813123)" gradientUnits="userSpaceOnUse" x1="-117.3182" x2="318.2717" xlink:href="#a" y1="257.3716" y2="-178.2182"/><linearGradient id="B" gradientTransform="matrix(1.066829 0 0 -1.066829 0 507.813123)" gradientUnits="userSpaceOnUse" x1="-133.3158" x2="302.2741" xlink:href="#a" y1="241.3741" y2="-194.2158"/><linearGradient id="C" gradientTransform="matrix(1.066829 0 0 -1.066829 0 507.813123)" gradientUnits="userSpaceOnUse" x1="-149.3133" x2="286.2766" xlink:href="#a" y1="225.3765" y2="-210.2133"/><linearGradient id="D" gradientTransform="matrix(1.066829 0 0 -1.066829 0 507.813123)" gradientUnits="userSpaceOnUse" x1="188.6353" x2="624.2252" xlink:href="#a" y1="563.3251" y2="127.7353"/><linearGradient id="E" gradientTransform="matrix(1.066829 0 0 -1.066829 0 507.813123)" gradientUnits="userSpaceOnUse" x1="172.6378" x2="608.2277" xlink:href="#a" y1="547.3276" y2="111.7377"/><linearGradient id="F" gradientTransform="matrix(1.066829 0 0 -1.066829 0 507.813123)" gradientUnits="userSpaceOnUse" x1="118.646" x2="554.2358" xlink:href="#a" y1="493.3358" y2="57.7459"/><linearGradient id="G" gradientTransform="matrix(1.066829 0 0 -1.066829 0 507.813123)" gradientUnits="userSpaceOnUse" x1="102.6484" x2="538.2383" xlink:href="#a" y1="477.3382" y2="41.7484"/><linearGradient id="H" gradientTransform="matrix(1.066829 0 0 -1.066829 0 507.813123)" gradientUnits="userSpaceOnUse" x1="86.6508" x2="522.2407" xlink:href="#a" y1="461.3407" y2="25.7508"/><linearGradient id="I" gradientTransform="matrix(1.066829 0 0 -1.066829 0 507.813123)" gradientUnits="userSpaceOnUse" x1="70.6533" x2="506.2431" xlink:href="#a" y1="445.3431" y2="9.7532"/><linearGradient id="J" gradientTransform="matrix(1.066829 0 0 -1.066829 0 507.813123)" gradientUnits="userSpaceOnUse" x1="54.6557" x2="490.2455" xlink:href="#a" y1="429.3455" y2="-6.2443"/><linearGradient id="K" gradientTransform="matrix(1.066829 0 0 -1.066829 0 507.813123)" gradientUnits="userSpaceOnUse" x1="38.6581" x2="474.248" xlink:href="#a" y1="413.348" y2="-22.2419"/><path d="m162.132812 102.398438h17.066407v17.066406h-17.066407zm0 0" fill="url(#b)"/><path d="m196.265625 102.398438h17.066406v17.066406h-17.066406zm0 0" fill="url(#c)"/><path d="m230.398438 102.398438h17.070312v17.066406h-17.070312zm0 0" fill="url(#d)"/><path d="m264.53125 102.398438h17.070312v17.066406h-17.070312zm0 0" fill="url(#e)"/><path d="m298.667969 102.398438h17.066406v17.066406h-17.066406zm0 0" fill="url(#f)"/><path d="m332.800781 102.398438h17.066407v17.066406h-17.066407zm0 0" fill="url(#g)"/><path d="m162.132812 136.535156h17.066407v17.066406h-17.066407zm0 0" fill="url(#h)"/><path d="m196.265625 136.535156h17.066406v17.066406h-17.066406zm0 0" fill="url(#b)"/><path d="m230.398438 136.535156h17.070312v17.066406h-17.070312zm0 0" fill="url(#c)"/><path d="m264.53125 136.535156h17.070312v17.066406h-17.070312zm0 0" fill="url(#d)"/><path d="m298.667969 136.535156h17.066406v17.066406h-17.066406zm0 0" fill="url(#e)"/><path d="m332.800781 136.535156h17.066407v17.066406h-17.066407zm0 0" fill="url(#f)"/><path d="m162.132812 170.667969h17.066407v17.066406h-17.066407zm0 0" fill="url(#i)"/><path d="m196.265625 170.667969h17.066406v17.066406h-17.066406zm0 0" fill="url(#h)"/><path d="m230.398438 170.667969h17.070312v17.066406h-17.070312zm0 0" fill="url(#b)"/><path d="m264.53125 170.667969h17.070312v17.066406h-17.070312zm0 0" fill="url(#c)"/><path d="m298.667969 170.667969h17.066406v17.066406h-17.066406zm0 0" fill="url(#d)"/><path d="m332.800781 170.667969h17.066407v17.066406h-17.066407zm0 0" fill="url(#e)"/><path d="m162.132812 204.800781h17.066407v17.066407h-17.066407zm0 0" fill="url(#j)"/><path d="m196.265625 204.800781h17.066406v17.066407h-17.066406zm0 0" fill="url(#i)"/><path d="m230.398438 204.800781h17.070312v17.066407h-17.070312zm0 0" fill="url(#h)"/><path d="m264.53125 204.800781h17.070312v17.066407h-17.070312zm0 0" fill="url(#b)"/><path d="m298.667969 204.800781h17.066406v17.066407h-17.066406zm0 0" fill="url(#c)"/><path d="m332.800781 204.800781h17.066407v17.066407h-17.066407zm0 0" fill="url(#d)"/><path d="m162.132812 238.933594h17.066407v17.066406h-17.066407zm0 0" fill="url(#k)"/><path d="m196.265625 238.933594h17.066406v17.066406h-17.066406zm0 0" fill="url(#j)"/><path d="m230.398438 238.933594h17.070312v17.066406h-17.070312zm0 0" fill="url(#i)"/><path d="m264.53125 238.933594h17.070312v17.066406h-17.070312zm0 0" fill="url(#h)"/><path d="m298.667969 238.933594h17.066406v17.066406h-17.066406zm0 0" fill="url(#b)"/><path d="m332.800781 238.933594h17.066407v17.066406h-17.066407zm0 0" fill="url(#c)"/><path d="m162.132812 273.066406h17.066407v17.066406h-17.066407zm0 0" fill="url(#l)"/><path d="m196.265625 273.066406h17.066406v17.066406h-17.066406zm0 0" fill="url(#k)"/><path d="m230.398438 273.066406h17.070312v17.066406h-17.070312zm0 0" fill="url(#j)"/><path d="m264.53125 273.066406h17.070312v17.066406h-17.070312zm0 0" fill="url(#i)"/><path d="m298.667969 273.066406h17.066406v17.066406h-17.066406zm0 0" fill="url(#h)"/><path d="m332.800781 273.066406h17.066407v17.066406h-17.066407zm0 0" fill="url(#b)"/><path d="m162.132812 307.199219h17.066407v17.066406h-17.066407zm0 0" fill="url(#m)"/><path d="m196.265625 307.199219h17.066406v17.066406h-17.066406zm0 0" fill="url(#l)"/><path d="m230.398438 307.199219h17.070312v17.066406h-17.070312zm0 0" fill="url(#k)"/><path d="m264.53125 307.199219h17.070312v17.066406h-17.070312zm0 0" fill="url(#j)"/><path d="m298.667969 307.199219h17.066406v17.066406h-17.066406zm0 0" fill="url(#i)"/><path d="m332.800781 307.199219h17.066407v17.066406h-17.066407zm0 0" fill="url(#h)"/><path d="m162.132812 341.332031h17.066407v17.066407h-17.066407zm0 0" fill="url(#n)"/><path d="m196.265625 341.332031h17.066406v17.066407h-17.066406zm0 0" fill="url(#m)"/><path d="m230.398438 341.332031h17.070312v17.066407h-17.070312zm0 0" fill="url(#l)"/><path d="m264.53125 341.332031h17.070312v17.066407h-17.070312zm0 0" fill="url(#k)"/><path d="m298.667969 341.332031h17.066406v17.066407h-17.066406zm0 0" fill="url(#j)"/><path d="m332.800781 341.332031h17.066407v17.066407h-17.066407zm0 0" fill="url(#i)"/><path d="m162.132812 375.46875h17.066407v17.066406h-17.066407zm0 0" fill="url(#o)"/><path d="m196.265625 375.46875h17.066406v17.066406h-17.066406zm0 0" fill="url(#n)"/><path d="m230.398438 375.46875h17.070312v17.066406h-17.070312zm0 0" fill="url(#m)"/><path d="m264.53125 375.46875h17.070312v17.066406h-17.070312zm0 0" fill="url(#l)"/><path d="m298.667969 375.46875h17.066406v17.066406h-17.066406zm0 0" fill="url(#k)"/><path d="m332.800781 375.46875h17.066407v17.066406h-17.066407zm0 0" fill="url(#j)"/><path d="m162.132812 409.601562h17.066407v17.066407h-17.066407zm0 0" fill="url(#p)"/><path d="m196.265625 409.601562h17.066406v17.066407h-17.066406zm0 0" fill="url(#o)"/><path d="m230.398438 409.601562h17.070312v17.066407h-17.070312zm0 0" fill="url(#n)"/><path d="m264.53125 409.601562h17.070312v17.066407h-17.070312zm0 0" fill="url(#m)"/><path d="m298.667969 409.601562h17.066406v17.066407h-17.066406zm0 0" fill="url(#l)"/><path d="m332.800781 409.601562h17.066407v17.066407h-17.066407zm0 0" fill="url(#k)"/><path d="m162.132812 443.734375h17.066407v17.066406h-17.066407zm0 0" fill="url(#q)"/><path d="m196.265625 443.734375h17.066406v17.066406h-17.066406zm0 0" fill="url(#p)"/><path d="m230.398438 443.734375h17.070312v17.066406h-17.070312zm0 0" fill="url(#o)"/><path d="m264.53125 443.734375h17.070312v17.066406h-17.070312zm0 0" fill="url(#n)"/><path d="m298.667969 443.734375h17.066406v17.066406h-17.066406zm0 0" fill="url(#m)"/><path d="m332.800781 443.734375h17.066407v17.066406h-17.066407zm0 0" fill="url(#l)"/><path d="m401.066406 221.867188h-17.066406v-153.601563h-110.933594v-68.265625h-17.066406v68.265625h-17.066406v-42.664063h-17.070313v42.664063h-93.863281v85.335937h-128v358.398438h512v-392.535156h-110.933594zm-273.066406 273.066406h-110.933594v-324.265625h110.933594zm238.933594 0h-85.332032v-17.066406h-51.203124v17.066406h-85.332032v-409.601563h221.867188zm68.265625 0h-51.199219v-256h51.199219zm-17.066407-358.398438h76.800782v358.398438h-42.667969v-17.066406h25.601563v-17.066407h-25.601563v-17.066406h25.601563v-17.070313h-25.601563v-17.066406h25.601563v-17.066406h-25.601563v-17.066406h25.601563v-17.066406h-25.601563v-17.070313h25.601563v-17.066406h-25.601563v-17.066407h25.601563v-17.066406h-25.601563v-17.066406h25.601563v-17.070312h-25.601563v-17.066407h25.601563v-17.066406h-59.734376zm0 0" fill="url(#r)"/><path d="m34.132812 187.734375h17.066407v17.066406h-17.066407zm0 0" fill="url(#s)"/><path d="m68.265625 187.734375h17.066406v17.066406h-17.066406zm0 0" fill="url(#t)"/><path d="m102.398438 187.734375h17.066406v17.066406h-17.066406zm0 0" fill="url(#u)"/><path d="m34.132812 221.867188h17.066407v17.066406h-17.066407zm0 0" fill="url(#v)"/><path d="m68.265625 221.867188h17.066406v17.066406h-17.066406zm0 0" fill="url(#s)"/><path d="m102.398438 221.867188h17.066406v17.066406h-17.066406zm0 0" fill="url(#t)"/><path d="m34.132812 256h17.066407v17.066406h-17.066407zm0 0" fill="url(#w)"/><path d="m68.265625 256h17.066406v17.066406h-17.066406zm0 0" fill="url(#v)"/><path d="m102.398438 256h17.066406v17.066406h-17.066406zm0 0" fill="url(#s)"/><path d="m34.132812 290.132812h17.066407v17.066407h-17.066407zm0 0" fill="url(#x)"/><path d="m68.265625 290.132812h17.066406v17.066407h-17.066406zm0 0" fill="url(#w)"/><path d="m102.398438 290.132812h17.066406v17.066407h-17.066406zm0 0" fill="url(#v)"/><path d="m34.132812 324.265625h17.066407v17.070313h-17.066407zm0 0" fill="url(#y)"/><path d="m68.265625 324.265625h17.066406v17.070313h-17.066406zm0 0" fill="url(#x)"/><path d="m102.398438 324.265625h17.066406v17.070313h-17.066406zm0 0" fill="url(#w)"/><path d="m34.132812 358.398438h17.066407v17.070312h-17.066407zm0 0" fill="url(#z)"/><path d="m68.265625 358.398438h17.066406v17.070312h-17.066406zm0 0" fill="url(#y)"/><path d="m102.398438 358.398438h17.066406v17.070312h-17.066406zm0 0" fill="url(#x)"/><path d="m34.132812 392.535156h17.066407v17.066406h-17.066407zm0 0" fill="url(#A)"/><path d="m68.265625 392.535156h17.066406v17.066406h-17.066406zm0 0" fill="url(#z)"/><path d="m102.398438 392.535156h17.066406v17.066406h-17.066406zm0 0" fill="url(#y)"/><path d="m34.132812 426.667969h17.066407v17.066406h-17.066407zm0 0" fill="url(#B)"/><path d="m68.265625 426.667969h17.066406v17.066406h-17.066406zm0 0" fill="url(#A)"/><path d="m102.398438 426.667969h17.066406v17.066406h-17.066406zm0 0" fill="url(#z)"/><path d="m34.132812 460.800781h17.066407v17.066407h-17.066407zm0 0" fill="url(#C)"/><path d="m68.265625 460.800781h17.066406v17.066407h-17.066406zm0 0" fill="url(#B)"/><path d="m102.398438 460.800781h17.066406v17.066407h-17.066406zm0 0" fill="url(#A)"/><path d="m435.199219 153.601562h42.667969v17.066407h-42.667969zm0 0" fill="url(#D)"/><path d="m435.199219 187.734375h42.667969v17.066406h-42.667969zm0 0" fill="url(#E)"/><path d="m401.066406 256h17.066406v17.066406h-17.066406zm0 0" fill="url(#F)"/><path d="m401.066406 290.132812h17.066406v17.066407h-17.066406zm0 0" fill="url(#G)"/><path d="m401.066406 324.265625h17.066406v17.070313h-17.066406zm0 0" fill="url(#H)"/><path d="m401.066406 358.398438h17.066406v17.070312h-17.066406zm0 0" fill="url(#I)"/><path d="m401.066406 392.535156h17.066406v17.066406h-17.066406zm0 0" fill="url(#J)"/><path d="m401.066406 426.667969h17.066406v17.066406h-17.066406zm0 0" fill="url(#K)"/><path d="m401.066406 460.800781h17.066406v17.066407h-17.066406zm0 0" fill="url(#r)"/></svg>