<?xml version="1.0" encoding="UTF-8"?>
<svg width="5162px" height="1028px" viewBox="0 0 5162 1028" version="1.1" xmlns="http://www.w3.org/2000/svg" xmlns:xlink="http://www.w3.org/1999/xlink">
    <!-- Generator: Sketch 52.5 (67469) - http://www.bohemiancoding.com/sketch -->
    <title>v copy 3</title>
    <desc>Created with Sketch.</desc>
    <g id="v-copy-3" stroke="none" stroke-width="1" fill="none" fill-rule="evenodd">
        <path d="M4404.55991,489.962711 C4407.2273,496.172258 4408.58613,502.662966 4408.58614,509.194701 C5257.15208,634.852202 5210.43251,726.120635 4268.42744,783 C2855.41984,868.319048 846.250873,878.793099 39.5864496,773 C-498.189833,702.471267 -511.523166,594.726196 -0.413550433,449.764787 C1204.91715,312.263796 2198.98328,184.332184 2981.78485,65.9699524 C3758.43595,-51.4623092 4232.69431,89.8686105 4404.55991,489.962711 Z" id="Path-2-Copy-4" fill="#F8F8F8"></path>
        <path d="M4404.97377,571.962694 C4407.64117,578.17225 4409,584.662968 4409,591.194714 L4409,802 L0,782 L2.99340261e-12,531.764787 C1205.33079,394.263796 2199.39699,266.332184 2982.19861,147.969952 C3758.84976,30.5376926 4233.10815,171.868606 4404.97377,571.962694 Z" id="Path-2-Copy-5" fill="#E3F3FF"></path>
        <path d="M5161.99986,953.407902 C4430.06047,1003.46104 3877.44346,1021.00847 3504.14884,1006.05019 C2805.48909,978.054216 1513.81789,801.329521 659.674406,883.692731 C367.161129,911.899155 147.269661,938.313623 -1.42108547e-14,962.936136 L0,552.65985 C1411.18555,427.895483 2575.02528,306.332184 3491.51919,187.969952 C4397.69399,70.9404019 4952.25532,210.90232 5155.20317,607.855707 C5159.67029,616.593117 5161.99963,626.266097 5161.99964,636.079227 L5161.99986,953.407902 Z" id="Combined-Shape" fill="#C6E7FF"></path>
    </g>
</svg>