
<svg height="512pt" viewBox="0 0 512 512.00213" width="512pt" xmlns="http://www.w3.org/2000/svg" xmlns:xlink="http://www.w3.org/1999/xlink"><linearGradient id="a"><stop offset="0" stop-color="#662d91"/><stop offset=".437" stop-color="#3873b3"/><stop offset="1" stop-color="#00c9dd"/></linearGradient><linearGradient id="b" gradientTransform="matrix(1.066829 0 0 -1.066829 .002132 507.813123)" gradientUnits="userSpaceOnUse" x1="202.6332" x2="599.9409" xlink:href="#a" y1="561.3255" y2="164.0178"/><linearGradient id="c" gradientTransform="matrix(1.066829 0 0 -1.066829 .002132 507.813123)" gradientUnits="userSpaceOnUse" x1="14.257" x2="411.5647" xlink:href="#a" y1="372.9413" y2="-24.3664"/><path d="m392.535156 8.535156c0-4.714844-3.820312-8.535156-8.535156-8.535156-4.710938 0-8.53125 3.820312-8.53125 8.535156-.039062 32.972656-26.757812 59.695313-59.734375 59.730469-4.710937 0-8.53125 3.820313-8.53125 8.535156 0 4.710938 3.820313 8.53125 8.53125 8.53125 32.976563.039063 59.695313 26.761719 59.734375 59.734375 0 4.714844 3.820312 8.535156 8.53125 8.535156 4.714844 0 8.535156-3.820312 8.535156-8.535156.039063-32.976562 26.757813-59.695312 59.734375-59.734375 4.714844 0 8.535157-3.820312 8.535157-8.53125 0-4.714843-3.820313-8.535156-8.535157-8.535156-32.976562-.035156-59.695312-26.757813-59.734375-59.730469zm-8.535156 101.367188c-7.34375-14.191406-18.910156-25.757813-33.097656-33.101563 14.1875-7.347656 25.753906-18.910156 33.097656-33.101562 7.347656 14.191406 18.914062 25.753906 33.101562 33.101562-14.1875 7.34375-25.753906 18.910157-33.101562 33.101563zm0 0" fill="url(#b)"/><path d="m503.46875 307.199219c-23.550781-.027344-42.636719-19.113281-42.667969-42.667969 0-4.710938-3.820312-8.53125-8.53125-8.53125-4.714843 0-8.535156 3.820312-8.535156 8.53125-.027344 9.148438-3.023437 18.039062-8.535156 25.335938v-91.851563c.003906-3.335937-1.933594-6.363281-4.964844-7.757813l-170.667969-78.507812c-2.261718-1.039062-4.867187-1.039062-7.132812 0l-114.125 52.492188c-1.144532-6.332032-1.738282-12.746094-1.773438-19.175782 0-4.714844-3.820312-8.535156-8.535156-8.535156s-8.535156 3.820312-8.535156 8.535156c-.027344 10.066406-1.433594 20.078125-4.171875 29.765625l-33.527344 15.460938c-3.027344 1.394531-4.964844 4.421875-4.964844 7.757812v34.3125c-19.457031 15.316407-43.503906 23.644531-68.265625 23.636719-4.714844 0-8.535156 3.820312-8.535156 8.535156 0 4.710938 3.820312 8.53125 8.535156 8.53125 24.75.039063 48.777344 8.347656 68.265625 23.605469v206.796875c0 4.714844 3.820313 8.535156 8.535157 8.535156h341.332031c4.710937 0 8.53125-3.820312 8.53125-8.535156v-161.871094c5.511719 7.300782 8.507812 16.1875 8.535156 25.335938 0 4.710937 3.820313 8.53125 8.535156 8.53125 4.710938 0 8.53125-3.820313 8.53125-8.53125.027344-23.554688 19.117188-42.640625 42.667969-42.667969 4.714844 0 8.535156-3.820313 8.535156-8.535156 0-4.710938-3.820312-8.53125-8.535156-8.53125zm-397.386719-109.335938c-3.476562 6.390625-7.566406 12.429688-12.210937 18.03125v-12.375zm21.921875-6.828125c13.074219 33.746094 39.753906 60.421875 73.496094 73.5-33.734375 13.066406-60.410156 39.726563-73.496094 73.453125-13.015625-33.777343-39.726562-60.464843-73.515625-73.453125 33.75-13.074218 60.433594-39.753906 73.515625-73.5zm85.332032 303.898438v-119.464844h85.332031v119.464844zm102.398437 0v-128c0-4.714844-3.820313-8.535156-8.53125-8.535156h-102.402344c-4.710937 0-8.53125 3.820312-8.53125 8.535156v128h-102.398437v-181.617188c16.53125 19.84375 25.589844 44.855469 25.597656 70.683594 0 4.714844 3.820312 8.535156 8.535156 8.535156 4.710938 0 8.53125-3.820312 8.53125-8.535156.070313-61.238281 49.695313-110.863281 110.933594-110.933594 4.714844 0 8.535156-3.820312 8.535156-8.535156 0-4.710938-3.820312-8.53125-8.535156-8.53125-47.351562-.082031-89.445312-30.179688-104.832031-74.964844l113.367187-52.183594 162.132813 74.617188v100.113281c-5.375 2.378907-11.1875 3.613281-17.066407 3.617188-4.714843 0-8.535156 3.820312-8.535156 8.53125 0 4.714843 3.820313 8.535156 8.535156 8.535156 5.875.003906 11.691407 1.238281 17.066407 3.617187v167.050782zm136.535156-158.71875c-5.0625-8.390625-12.089843-15.421875-20.480469-20.480469 8.390626-5.0625 15.417969-12.089844 20.480469-20.480469 5.0625 8.390625 12.089844 15.417969 20.480469 20.480469-8.390625 5.058594-15.417969 12.089844-20.480469 20.480469zm0 0" fill="url(#c)"/></svg>