<?xml version="1.0" encoding="UTF-8"?>
<!DOCTYPE svg PUBLIC "-//W3C//DTD SVG 1.1//EN" "http://www.w3.org/Graphics/SVG/1.1/DTD/svg11.dtd">
<!-- Creator: CorelDRAW X7 -->
<svg xmlns="http://www.w3.org/2000/svg" xml:space="preserve" width="365.428mm" height="119.211mm" version="1.1" style="shape-rendering:geometricPrecision; text-rendering:geometricPrecision; image-rendering:optimizeQuality; fill-rule:evenodd; clip-rule:evenodd"
viewBox="0 0 36543 11921"
 xmlns:xlink="http://www.w3.org/1999/xlink">
 <defs>
  <style type="text/css">
   <![CDATA[
    .str0 {stroke:#CFB487;stroke-width:105.24}
    .str1 {stroke:#CFB487;stroke-width:105.25}
    .fil4 {fill:none}
    .fil0 {fill:#B1916A}
    .fil6 {fill:#D0A765}
    .fil5 {fill:#D2B589}
    .fil3 {fill:#ECCCD0}
    .fil2 {fill:#F3DAD1}
    .fil1 {fill:black;fill-rule:nonzero}
   ]]>
  </style>
 </defs>
 <g id="Capa_x0020_1">
  <metadata id="CorelCorpID_0Corel-Layer"/>
  <g id="_404000992">
   <path class="fil0" d="M29952 9760l715 535c-89,144 -251,219 -431,222 -142,-245 -200,-423 -284,-757zm-5065 -2029l636 -177 0 0c-65,22 -121,49 -177,100 346,49 1246,-223 1740,-239 1533,-51 2808,1182 3546,2335 493,771 85,779 -704,967 -1399,335 -3443,-20 -4157,-1342 -478,-885 -398,-1483 -481,-1602 -109,-97 -257,-81 -403,-42zm4331 1483c523,217 576,574 720,952 57,148 127,252 176,378 -47,36 -15,24 -99,56l-389 53c-22,-105 -160,-353 -235,-683 -50,-220 -86,-508 -173,-756zm536 -2l48 25c135,33 347,-83 443,237 -240,53 -413,40 -589,-95 -142,-109 -361,-236 -499,-373 132,-81 340,-63 537,-19l296 100c-41,79 -160,85 -236,125zm-1482 -600c946,398 830,799 1010,1491 58,222 165,411 202,580 -202,72 -552,105 -661,-86 -148,-262 -546,-1800 -551,-1985zm-567 -244c375,100 388,117 468,453 51,216 112,413 162,641 48,217 94,417 162,637 60,194 187,453 217,615l-225 22c-79,-5 -166,-18 -246,-26 -409,-43 -506,-134 -729,-846 -127,-405 -354,-1209 -342,-1657 497,137 407,170 612,1189 74,369 249,1083 545,1203 -3,-85 -258,-681 -347,-1069 -89,-386 -211,-790 -277,-1162zm-2239 -475l597 139 372 1560c54,182 138,372 158,498 -623,-345 -1070,-1352 -1127,-2197zm761 148l289 48c69,252 105,1086 470,1315 -1,-146 -156,-374 -217,-579 -55,-187 -114,-478 -82,-713l283 54c148,255 195,929 277,1257 204,814 371,944 436,1172 -788,-188 -458,-359 -761,-536l37 260c-350,-186 -746,-2015 -732,-2278zm2113 437c549,-296 1073,-157 1417,382l-780 27c-90,-28 -222,-134 -314,-189 -135,-80 -238,-107 -323,-220zm-2274 -545l-563 -149c142,-65 701,-170 863,-171 -61,98 -212,239 -300,320zm1666 297c50,-55 522,-352 605,-375 166,-48 558,209 658,332l-935 195 -328 -152zm-528 -117c71,-137 595,-539 1048,-375 -134,170 -293,203 -448,293 -335,191 -87,203 -600,82zm-174 -40l-786 -126c281,-452 882,-541 1561,-357 -108,123 -482,178 -775,483z"/>
   <path class="fil0" d="M17543 7950c4823,428 9954,-181 13959,-2950 443,-307 1028,-758 1377,-1123l110 84c-164,123 -335,297 -530,458 -501,415 -1142,865 -1693,1192 -78,46 -143,77 -200,111l0 0 -586 309 -7 3c-89,47 -176,104 -253,142 -2898,1429 -6188,1969 -9449,1985 -2864,15 -5660,-412 -8485,-870 -1719,-279 -3774,-568 -5473,-679 -1136,-74 -2260,-109 -3415,-58 -760,33 -1544,118 -2232,411 -260,111 -386,150 -666,9 48,-346 814,-530 1140,-614 2888,-746 8207,134 11033,614 4128,702 7824,1175 11990,540 132,-20 245,-33 321,-112 137,-143 16,-202 209,-256l32 267c1793,-176 4758,-1386 6276,-2412 413,-279 1406,-1056 1541,-1385l153 118 -528 509c-723,628 -1269,1022 -2173,1516 -3653,1998 -8178,2410 -12415,2090 -4670,-354 -10907,-2089 -15418,-1542 -483,59 -1685,272 -1873,575 136,82 459,-90 616,-144 695,-238 1503,-298 2226,-337 1057,-57 2259,4 3298,83 3769,288 7405,1137 11115,1466z"/>
   <path class="fil1" d="M3136 2325c-83,204 -148,414 -196,629 -47,215 -71,435 -71,657 -2,125 4,251 15,378 11,126 36,249 73,370 30,105 75,209 133,310 59,101 138,180 237,237 117,62 243,87 379,73 135,-14 261,-48 377,-103 122,-60 235,-138 335,-234 102,-96 193,-198 274,-305 172,-223 322,-458 448,-706 126,-248 257,-493 392,-735 8,-12 20,-13 38,-5 18,8 24,18 17,28 -28,74 -56,144 -83,211 -28,67 -58,136 -90,206 -62,139 -129,275 -202,410 -72,134 -150,266 -233,395 -77,118 -159,233 -245,344 -86,112 -183,211 -290,298 -100,84 -210,153 -329,206 -119,55 -241,87 -363,98 -124,11 -246,-1 -367,-37 -122,-36 -235,-99 -340,-191 -97,-89 -174,-191 -232,-309 -58,-117 -101,-240 -133,-369 -31,-130 -50,-262 -56,-398 -6,-136 -7,-265 -1,-387 8,-190 33,-378 72,-565 40,-186 95,-367 166,-542 -170,-21 -338,-34 -504,-41 -167,-6 -336,4 -507,29 -131,20 -259,53 -382,98 -123,46 -241,106 -351,183 -104,73 -202,155 -293,245 -91,90 -163,194 -219,311 -3,7 -9,8 -19,4 -9,-5 -11,-12 -9,-19 16,-62 35,-120 60,-175 24,-54 49,-111 75,-169 26,-56 57,-103 93,-145 35,-40 77,-82 125,-123 97,-81 202,-147 314,-204 111,-55 226,-98 343,-128 223,-60 445,-86 665,-77 221,10 443,32 667,69 32,-70 66,-137 100,-202 35,-63 72,-127 113,-190 143,-228 311,-437 505,-625 194,-188 406,-351 636,-486 100,-59 215,-115 344,-170 127,-53 256,-89 384,-106 129,-17 251,-5 370,33 118,40 220,122 304,247 38,55 62,113 70,174 8,61 8,121 -3,180 -9,60 -26,120 -51,180 -23,60 -48,118 -75,172 -52,111 -114,213 -189,308 -75,95 -156,181 -246,261 -196,174 -413,298 -652,372 -238,74 -487,106 -744,96 -109,-6 -216,-15 -324,-28 -108,-13 -216,-25 -325,-38zm128 -264c-10,22 -21,44 -32,66 -12,22 -22,44 -32,66 55,11 109,22 166,29 55,9 111,18 165,31 259,37 511,35 757,-9 245,-43 473,-148 684,-311 187,-142 338,-310 454,-505 30,-48 61,-104 92,-168 31,-64 56,-129 74,-194 19,-66 27,-130 26,-195 -1,-64 -17,-125 -49,-180 -34,-60 -80,-103 -137,-128 -57,-27 -117,-41 -180,-43 -62,-2 -127,4 -192,19 -65,16 -125,34 -178,55 -119,45 -234,98 -344,161 -110,62 -215,132 -315,208 -198,145 -378,311 -541,495 -163,185 -303,386 -418,603z"/>
   <path id="1" class="fil1" d="M7371 3200c8,-10 20,-10 37,0 17,11 24,21 20,31 -97,280 -239,538 -425,775 -32,41 -69,83 -110,127 -40,42 -84,78 -132,105 -46,26 -96,42 -151,48 -54,5 -108,-10 -164,-43 -51,-29 -91,-67 -117,-116 -27,-49 -47,-103 -58,-161 -12,-58 -17,-116 -16,-176 0,-59 5,-113 12,-163 3,-39 12,-79 26,-121 -8,16 -19,31 -31,42 -11,13 -21,27 -29,44 -34,52 -71,106 -113,164 -42,58 -92,99 -152,123 -59,24 -113,25 -161,4 -49,-22 -90,-56 -124,-101 -35,-46 -60,-98 -78,-157 -17,-59 -24,-111 -20,-157 10,-133 51,-265 122,-397 71,-133 152,-248 242,-346 38,-40 82,-77 132,-113 50,-36 101,-61 154,-77 53,-16 107,-19 162,-10 55,10 108,38 158,86 67,62 97,131 89,208 -8,76 -34,149 -79,218l51 -29c11,-6 25,-3 42,8 17,13 23,25 19,40 -11,45 -29,87 -55,125 -27,37 -50,77 -71,118 -51,100 -86,202 -105,304 -11,50 -19,97 -23,144 -6,46 -7,94 -3,144 4,41 10,89 18,147 8,58 31,101 68,129 31,21 63,27 98,21 35,-6 69,-19 102,-38 34,-19 65,-40 92,-65 26,-25 50,-47 69,-68 70,-73 134,-156 192,-249 63,-88 121,-180 171,-275 51,-95 97,-192 141,-293zm-1326 518c81,-72 154,-162 217,-266 63,-105 123,-207 177,-307 -8,-1 -11,-4 -10,-11 26,-59 53,-117 80,-175 28,-57 35,-118 22,-184 -7,-40 -21,-67 -42,-81 -20,-14 -43,-19 -69,-16 -25,4 -52,13 -79,26 -29,14 -54,29 -77,45 -88,66 -158,145 -214,237 -56,93 -107,186 -153,280 -26,55 -49,111 -70,168 -20,59 -29,118 -27,179 2,18 7,46 15,84 8,39 21,66 37,81 31,21 65,21 103,0 37,-20 67,-41 90,-60z"/>
   <path id="2" class="fil1" d="M8688 3339c15,-5 32,2 52,22 18,20 21,33 6,39 -181,73 -356,148 -525,226 -170,77 -335,174 -495,289 14,102 18,203 11,303 -6,100 -24,201 -53,302 -31,111 -76,220 -135,327 -59,107 -134,197 -224,269 -84,66 -176,97 -279,92 -102,-4 -187,-52 -256,-143 -71,-95 -92,-194 -63,-299 30,-104 83,-204 159,-300 76,-95 162,-183 260,-264 97,-81 177,-148 241,-202 28,-22 54,-43 80,-64 26,-20 54,-39 85,-58 -15,-94 -31,-188 -52,-278 -20,-90 -39,-184 -57,-279l-5 0c-8,6 -20,3 -35,-8 -15,-10 -18,-20 -10,-30 17,-20 30,-37 38,-50 -7,-87 -8,-175 -2,-262 6,-87 27,-172 61,-255 16,-37 37,-77 65,-116 28,-40 60,-78 94,-111 34,-33 73,-59 114,-76 41,-17 85,-21 130,-12 95,22 145,63 151,125 5,62 -15,132 -60,212 -45,79 -104,160 -179,244 -73,83 -143,155 -207,217 7,94 21,188 42,283 23,94 42,188 60,284 0,0 1,2 5,6 151,-102 308,-184 470,-249 163,-64 334,-125 513,-184zm-1090 -292c61,-65 119,-131 172,-201 53,-70 96,-146 132,-229 9,-27 16,-48 17,-62 1,-4 0,-6 -2,-8 -1,-2 -2,-6 -1,-14 -19,8 -39,19 -63,31 -46,27 -90,68 -132,125 -35,47 -61,97 -80,153 -19,55 -32,112 -39,173l-4 32zm-41 1069c4,-34 5,-61 4,-80 -35,28 -70,56 -104,83 -34,26 -66,54 -98,83 -92,80 -185,171 -280,273 -95,103 -158,215 -190,338 -11,30 -15,65 -15,102 2,39 14,71 35,99 19,31 42,47 70,46 29,0 60,-8 89,-22 54,-23 101,-55 141,-97 41,-43 78,-87 112,-133 147,-211 226,-441 236,-692z"/>
   <path id="3" class="fil1" d="M10372 3589c9,-9 22,-9 38,3 17,11 22,22 17,32 -115,273 -275,521 -477,744 -35,38 -74,77 -118,118 -44,40 -90,73 -139,97 -49,23 -100,35 -154,36 -55,2 -108,-16 -161,-53 -49,-33 -85,-74 -109,-125 -23,-50 -39,-104 -46,-163 -8,-59 -9,-118 -4,-177 5,-59 12,-113 24,-162 5,-39 16,-79 33,-120 -10,17 -20,30 -33,41 -12,11 -24,25 -33,41 -36,50 -77,101 -123,156 -46,55 -100,92 -160,112 -61,20 -115,18 -161,-7 -48,-25 -87,-61 -117,-109 -32,-49 -54,-102 -67,-162 -13,-60 -16,-113 -9,-158 19,-132 69,-261 149,-388 80,-127 168,-237 265,-327 41,-38 88,-72 140,-105 52,-31 104,-54 159,-66 53,-12 108,-12 162,2 54,13 105,45 151,95 63,68 87,139 74,214 -13,76 -43,147 -92,212l52 -24c11,-6 25,-2 42,11 16,13 21,27 15,40 -13,45 -35,85 -63,121 -29,35 -55,73 -79,113 -58,97 -99,195 -125,297 -14,48 -26,95 -34,140 -9,47 -13,94 -13,145 1,41 4,90 8,148 4,58 24,103 59,133 29,23 61,32 96,28 35,-4 70,-14 106,-31 34,-17 65,-37 95,-59 28,-24 53,-44 74,-62 75,-69 145,-147 208,-236 70,-84 133,-171 190,-262 57,-91 110,-186 160,-283zm-1358 425c87,-67 165,-151 235,-251 71,-100 136,-197 197,-293 -7,-1 -10,-5 -9,-12 30,-58 61,-113 93,-168 31,-56 43,-116 35,-183 -5,-40 -18,-68 -37,-84 -19,-15 -42,-22 -68,-20 -25,1 -52,9 -81,20 -29,12 -55,26 -79,40 -92,59 -169,133 -231,222 -61,88 -118,177 -171,268 -30,53 -57,107 -82,164 -23,55 -36,115 -39,175 1,18 4,47 10,86 4,39 15,66 31,83 29,22 63,25 102,7 39,-18 70,-36 94,-54z"/>
   <path id="4" class="fil1" d="M12689 3465c-59,-16 -117,-32 -175,-50 -56,-18 -114,-38 -172,-61 -92,-36 -186,-71 -280,-105 -94,-34 -189,-65 -285,-92 -95,-27 -192,-47 -289,-60 -98,-13 -198,-15 -301,-4 -80,5 -159,20 -237,43 -78,22 -151,54 -220,93 -70,41 -132,90 -185,146 -54,58 -98,125 -131,203 -5,7 -11,8 -20,3 -8,-5 -11,-11 -10,-18 32,-165 112,-297 241,-395 129,-99 272,-166 429,-204 90,-22 183,-31 278,-26 96,5 189,19 281,43 94,23 184,50 274,81 89,32 176,63 262,94 195,80 391,148 589,203 32,-75 68,-146 108,-215 39,-68 77,-131 116,-191 131,-204 288,-391 469,-559 181,-168 378,-312 591,-431 100,-54 213,-108 342,-160 129,-53 259,-88 387,-104 130,-17 254,-7 373,31 119,38 219,121 297,249 66,110 80,223 43,337 -37,114 -88,220 -153,319 -76,115 -160,216 -252,303 -93,87 -196,168 -308,242l-6 -1c-57,42 -120,81 -191,117 -252,136 -514,220 -787,251 -273,32 -545,23 -816,-25 -34,81 -61,156 -82,226 -36,110 -57,225 -66,343 -8,117 13,232 66,341 55,113 140,193 257,239 115,47 231,71 346,74 138,3 274,-17 409,-60 135,-43 261,-97 379,-163 8,-6 17,-11 27,-14 10,-5 19,-9 27,-15 29,-97 63,-192 103,-284 39,-91 81,-169 127,-233 45,-63 94,-106 147,-126 52,-22 107,-10 165,35 71,54 106,113 104,176 -2,63 -26,125 -72,187 -45,62 -108,122 -187,180 -79,60 -163,113 -250,162 -1,3 -2,6 -4,9 -2,4 -4,8 -5,16 -9,35 -17,69 -24,105 -7,35 -15,70 -24,105 70,-30 147,-63 232,-101 86,-38 171,-79 255,-124 84,-46 166,-91 243,-137 78,-46 148,-94 209,-143 9,-9 24,-5 47,13 22,19 29,34 20,46 -64,63 -139,122 -224,176 -86,54 -175,106 -268,154 -93,50 -185,96 -279,138 -93,42 -180,80 -261,115 -20,81 -37,159 -51,234 -16,75 -35,153 -58,233 -30,103 -72,208 -126,314 -54,106 -118,203 -193,289 -74,86 -161,157 -260,213 -98,56 -208,85 -328,89 -95,4 -192,-15 -293,-55 -100,-41 -168,-109 -205,-205 -21,-50 -27,-101 -15,-152 11,-51 30,-99 55,-146 24,-47 55,-90 89,-130 36,-40 70,-78 105,-112 159,-150 334,-270 523,-363 190,-93 385,-182 586,-267 8,-28 17,-60 26,-97 9,-37 18,-75 29,-117 -59,30 -113,55 -159,76 -46,20 -85,35 -115,45 -125,42 -255,69 -386,80 -133,11 -263,-5 -390,-45 -121,-40 -231,-101 -331,-183 -99,-82 -175,-181 -226,-297 -62,-140 -85,-287 -69,-442 16,-155 53,-308 113,-459zm1477 1580c-40,16 -77,33 -114,49 -36,15 -73,31 -108,49 -112,51 -224,108 -335,169 -110,60 -213,133 -309,216 -47,44 -91,89 -134,135 -44,45 -82,97 -116,153 -20,37 -36,75 -49,115 -14,39 -14,79 -3,121 12,42 33,68 61,80 29,12 62,18 98,20 126,5 243,-23 352,-85 109,-62 203,-136 281,-226 100,-111 177,-236 232,-372 55,-136 102,-274 142,-413l2 -11zm649 -1069c-18,-20 -42,-19 -68,4 -27,22 -53,54 -77,94 -24,40 -46,79 -67,118 -20,38 -32,62 -38,72 -6,17 -12,33 -17,44 -6,12 -11,26 -17,43l60 -45c30,-24 57,-47 82,-69 25,-21 48,-45 70,-71 17,-19 39,-49 65,-90 27,-42 28,-75 7,-100zm-1220 -1372c-119,116 -229,242 -332,379 -101,136 -189,281 -263,432 60,9 122,17 184,23 62,5 127,7 192,7 347,1 679,-72 996,-220 318,-147 590,-350 817,-608 11,-28 22,-55 34,-83 11,-27 23,-54 33,-81 24,-61 42,-127 52,-198 11,-71 5,-139 -18,-204 -23,-65 -66,-109 -129,-134 -63,-24 -128,-33 -193,-29 -132,6 -262,35 -391,88 -129,53 -252,113 -366,178 -221,118 -426,269 -616,450z"/>
   <path id="5" class="fil1" d="M16943 4601c9,-10 21,-9 37,3 17,11 23,21 18,31 -112,274 -268,524 -468,750 -33,38 -72,78 -116,119 -43,41 -89,74 -138,98 -48,25 -99,38 -154,40 -53,1 -107,-16 -160,-51 -50,-33 -87,-73 -111,-124 -24,-50 -40,-104 -48,-163 -9,-59 -11,-118 -6,-177 4,-59 11,-112 21,-162 5,-39 16,-79 32,-120 -9,17 -20,31 -32,42 -13,10 -24,25 -33,42 -36,49 -75,101 -121,156 -45,56 -98,94 -158,114 -61,21 -115,19 -162,-5 -48,-25 -87,-61 -119,-107 -31,-48 -54,-102 -67,-162 -14,-59 -18,-112 -12,-158 18,-131 66,-261 145,-389 77,-128 165,-238 260,-330 41,-38 87,-74 138,-107 51,-33 104,-55 158,-68 54,-12 108,-13 163,0 53,13 104,45 152,94 64,66 89,137 77,213 -12,76 -42,147 -90,213l52 -26c11,-6 26,-2 42,11 16,13 21,26 15,40 -12,45 -33,85 -61,122 -29,35 -54,74 -78,114 -56,97 -96,196 -121,297 -14,49 -25,97 -32,142 -8,46 -12,94 -12,144 3,40 6,90 10,148 6,58 26,103 62,133 29,21 61,30 96,26 35,-4 70,-15 105,-32 34,-17 66,-37 94,-61 29,-23 53,-43 74,-63 74,-69 142,-149 204,-238 69,-84 132,-172 188,-264 55,-92 107,-187 156,-285zm-1352 442c85,-68 162,-152 232,-253 69,-101 133,-200 194,-296 -8,-1 -11,-5 -10,-13 30,-57 59,-113 90,-168 31,-56 42,-117 32,-182 -5,-42 -17,-69 -37,-84 -19,-15 -43,-22 -68,-20 -26,2 -53,9 -81,21 -29,13 -55,27 -78,42 -92,59 -167,134 -228,223 -60,89 -117,179 -168,270 -29,54 -56,109 -79,165 -24,57 -37,116 -38,177 2,18 5,46 11,85 6,39 16,66 32,83 30,22 64,24 102,5 39,-18 70,-36 94,-55z"/>
   <path id="6" class="fil1" d="M18352 4729c8,-6 20,-5 35,3 15,8 21,17 16,28 -36,98 -88,185 -155,262 -67,77 -135,155 -201,232 -141,146 -287,286 -437,417 -35,30 -76,68 -123,117 -46,48 -95,77 -146,88 -37,4 -73,-6 -108,-30 -36,-25 -62,-51 -77,-82 -32,-49 -49,-102 -50,-157 -1,-56 4,-110 16,-163 24,-127 63,-248 115,-362 52,-115 113,-224 182,-330 -50,-4 -97,-18 -142,-44 -59,-29 -100,-70 -124,-123 -25,-52 -30,-110 -14,-173 33,-134 81,-266 147,-395 66,-129 137,-250 215,-362 36,-55 76,-113 119,-176 43,-63 91,-114 144,-153 38,-26 80,-32 128,-19 47,12 82,40 103,81 26,41 32,85 17,133 -14,47 -30,90 -48,128 -30,66 -61,129 -93,191 -32,63 -66,123 -103,180 -129,220 -283,409 -465,566 10,19 22,31 40,36 28,9 63,8 103,-5 40,-13 75,-26 106,-37 10,-3 24,-2 39,2 16,5 31,13 47,26 15,11 26,24 35,37 8,14 7,27 -1,41 -45,78 -87,160 -124,243 -37,83 -74,165 -108,244 -28,74 -55,149 -83,228 -28,79 -49,157 -62,235 -5,17 -9,42 -11,74 2,7 6,16 9,25 3,9 2,17 -2,24 7,-4 14,-6 19,-10 6,-3 11,-4 14,-3 60,-36 122,-77 188,-126 87,-64 169,-136 245,-215 76,-78 152,-155 226,-231 67,-71 132,-142 195,-217 63,-74 122,-150 174,-228zm-881 -640c-63,120 -113,238 -151,354 -2,14 -6,31 -15,52 63,-74 123,-151 180,-230 57,-80 109,-162 159,-243 55,-101 106,-207 155,-322 13,-31 26,-64 40,-96 13,-33 24,-65 34,-97l2 -21c-33,47 -69,94 -111,142 -41,46 -79,94 -111,142 -73,108 -134,215 -182,319z"/>
   <path id="7" class="fil1" d="M19693 4558c-35,88 -65,174 -89,259 -17,54 -33,114 -52,181 -18,67 -29,135 -31,203 -2,68 5,134 23,196 17,64 56,114 115,153 28,19 61,30 99,33 36,3 74,0 112,-8 38,-7 76,-19 114,-33 38,-15 72,-29 101,-43 87,-39 172,-92 252,-157 89,-72 167,-156 237,-252 70,-96 134,-193 195,-292 8,-9 21,-10 38,0 17,9 23,19 15,29 -76,127 -159,249 -249,368 -90,118 -194,220 -311,305 -55,38 -114,71 -178,99 -64,28 -127,47 -193,58 -64,10 -129,8 -192,-7 -64,-15 -124,-47 -180,-94 -104,-86 -159,-192 -166,-318 -7,-125 5,-247 34,-364 -15,28 -29,57 -43,88 -14,29 -30,59 -49,86 -38,70 -80,140 -125,208 -45,68 -100,130 -162,185 -44,37 -93,66 -148,86 -54,20 -111,19 -172,-1 -53,-15 -98,-46 -136,-90 -38,-45 -65,-92 -81,-143 -16,-68 -20,-139 -14,-212 6,-73 21,-145 45,-216 24,-70 54,-139 90,-206 37,-67 75,-126 117,-179 37,-52 82,-100 133,-145 52,-44 108,-83 168,-115 60,-32 123,-54 187,-64 65,-10 131,-5 199,15 84,22 146,69 183,147 26,-64 53,-128 81,-191 27,-63 56,-127 87,-191 142,-280 306,-543 489,-787 86,-116 177,-222 274,-318 48,-46 104,-92 166,-140 62,-47 129,-74 201,-78 64,-5 114,4 149,29 36,24 60,58 74,101 15,44 21,91 17,141 -3,50 -13,97 -29,144 -76,248 -195,478 -356,690 -132,182 -286,346 -463,492 -177,146 -369,262 -576,348zm193 -460c-31,66 -61,132 -90,197 -29,65 -55,131 -79,199 182,-98 353,-211 511,-339 158,-129 299,-279 423,-450 64,-87 121,-176 171,-268 50,-91 92,-188 128,-291 19,-49 38,-103 53,-162 17,-58 23,-114 17,-168 -3,-14 -6,-30 -9,-46 -3,-16 -9,-28 -20,-36 -18,-10 -39,-10 -64,3 -26,14 -44,24 -55,31 -26,13 -50,29 -72,46 -22,17 -44,34 -66,52 -99,78 -187,170 -264,275 -77,104 -151,209 -223,314 -64,101 -127,205 -188,313 -62,107 -119,216 -173,330zm-607 789c31,-60 61,-123 90,-191 29,-67 66,-124 111,-172 4,-4 11,-6 22,-6 3,-7 9,-20 17,-41 9,-51 5,-95 -11,-136 -17,-39 -55,-62 -116,-68 -61,-2 -120,12 -178,40 -59,28 -110,62 -154,99 -103,79 -188,175 -255,289 -66,114 -112,234 -138,358 -5,21 -10,50 -17,87 -6,38 -10,76 -12,116 -1,39 2,75 10,107 8,33 26,57 54,72 28,19 58,23 90,14 34,-10 62,-23 88,-40 11,-7 22,-14 33,-23 11,-9 22,-16 33,-23 30,-24 55,-48 78,-73 22,-24 42,-50 61,-78 38,-52 72,-107 103,-163 31,-56 61,-112 91,-168z"/>
   <path id="8" class="fil1" d="M22311 4683c7,-12 19,-13 35,-5 17,8 23,18 20,29 -24,105 -65,200 -124,285 -58,85 -124,165 -195,240 -69,75 -142,142 -219,201 -79,59 -167,100 -266,122 -86,15 -167,15 -245,-2 -77,-16 -146,-46 -206,-90 -59,-44 -108,-101 -147,-170 -39,-71 -62,-148 -70,-233 -7,-83 -2,-165 16,-248 17,-84 45,-164 83,-240 38,-78 85,-148 141,-211 56,-63 119,-118 188,-164 70,-43 147,-73 230,-89 83,-16 160,6 231,67 52,48 77,108 73,180 -5,71 -25,133 -62,185 -70,111 -164,190 -284,239 -120,48 -243,61 -369,38 -6,29 -13,51 -19,65 -15,73 -19,153 -15,243 4,89 27,167 70,233 50,80 120,121 209,122 89,1 173,-14 250,-46 78,-33 149,-76 215,-131 65,-55 127,-113 185,-173 62,-66 117,-136 165,-208 49,-72 85,-152 110,-239zm-987 -202c-37,41 -70,87 -99,138 -27,52 -51,105 -69,160 132,1 248,-34 349,-102 56,-39 108,-90 156,-155 50,-65 71,-134 64,-204 -6,-47 -27,-67 -64,-62 -38,5 -80,22 -124,51 -46,29 -89,62 -130,98 -41,36 -69,61 -83,76z"/>
   <path id="9" class="fil1" d="M23949 4166c2,-16 16,-23 44,-20 28,2 42,13 42,32 -19,209 -54,411 -106,605 -20,85 -41,173 -65,261 -24,90 -55,174 -95,256 -23,49 -53,87 -90,115 -36,29 -81,39 -135,30 -67,-11 -118,-42 -153,-91 -36,-49 -63,-103 -83,-161 -58,-169 -83,-340 -76,-511 8,-171 14,-344 20,-520 -2,-23 -3,-47 -3,-72 -1,-25 -4,-49 -10,-74 -1,-11 -5,-25 -12,-42l-1 -5c0,0 -3,4 -9,9 -24,26 -44,57 -60,94 -16,38 -30,73 -44,106 -35,83 -64,167 -87,252 -24,85 -44,172 -63,261 -20,81 -38,162 -52,241 -14,80 -29,161 -45,245 -12,63 -29,125 -48,188 -19,61 -63,102 -132,123 -21,4 -45,4 -73,-2 -28,-6 -49,-18 -64,-35 -59,-77 -98,-162 -119,-255 -21,-95 -33,-189 -37,-284 -9,-97 -5,-194 14,-293 18,-98 53,-186 106,-266 5,-14 19,-24 40,-28 22,-5 43,-6 65,-4 23,3 41,9 58,20 16,11 24,24 22,40 -14,91 -27,178 -41,263 -13,85 -20,172 -18,260 0,66 6,127 19,181 12,55 27,111 44,171 6,-30 12,-58 16,-85 5,-28 9,-48 11,-60 10,-43 18,-84 24,-126 6,-41 14,-83 25,-125 17,-89 35,-178 52,-268 17,-91 37,-179 60,-266 15,-48 32,-107 53,-175 21,-68 49,-130 84,-185 35,-55 79,-94 131,-117 53,-23 116,-16 190,23 59,31 96,81 111,150 14,69 25,136 31,198 2,81 0,161 -6,241 -6,80 -8,161 -4,245 3,83 11,166 22,246 12,80 23,162 34,247 1,22 3,44 4,65 1,21 1,43 3,65 8,58 41,77 97,54 16,-7 32,-21 45,-39 14,-19 25,-40 35,-64 9,-23 19,-46 27,-68 8,-24 13,-41 16,-54 50,-162 87,-327 115,-490 28,-165 52,-332 71,-502z"/>
   <path id="10" class="fil1" d="M25454 4054c5,-16 21,-17 45,-6 24,10 34,25 27,43 -50,143 -110,284 -179,419 -68,136 -147,268 -234,397 -36,52 -73,103 -112,150 -40,48 -90,81 -150,100 -48,14 -95,16 -142,3 -45,-13 -87,-33 -125,-58 -57,-43 -103,-93 -137,-152 -35,-58 -60,-121 -76,-188 -16,-66 -24,-135 -25,-205 -3,-70 0,-137 5,-202 6,-73 15,-143 25,-215 11,-70 29,-140 52,-211 17,-61 39,-130 66,-206 26,-76 67,-135 121,-178 17,-16 45,-16 86,-1 41,14 60,37 58,66 -3,53 -17,106 -42,156 -25,50 -45,101 -58,152 -42,118 -71,235 -88,351 -17,109 -26,224 -28,346 -2,122 19,235 63,340 35,91 78,135 128,132 50,-1 101,-26 153,-73 52,-46 101,-103 146,-169 46,-66 81,-117 107,-156 64,-101 122,-204 174,-308 52,-104 98,-213 140,-327zm-619 -810c-32,9 -70,6 -114,-10 -44,-17 -73,-43 -87,-78 -5,-28 -3,-54 6,-75 3,-12 10,-28 23,-51 10,-18 18,-35 26,-50 8,-15 17,-32 26,-50 16,-30 40,-42 72,-38 33,5 60,12 83,21 18,9 41,26 71,48 28,24 36,48 23,74 -9,19 -17,36 -25,53 -8,16 -16,34 -25,53 -7,11 -10,21 -12,30 -1,9 -5,18 -11,25 -13,27 -32,42 -56,48z"/>
   <path id="11" class="fil1" d="M26963 3651c3,-12 15,-18 35,-15 19,3 29,10 29,21 24,295 -3,589 -79,881 -13,50 -30,103 -49,159 -21,57 -47,106 -79,150 -33,43 -73,78 -120,104 -47,26 -104,35 -167,27 -58,-6 -110,-26 -154,-60 -44,-33 -84,-75 -118,-124 -34,-49 -62,-101 -85,-155 -23,-55 -41,-106 -54,-155 -13,-36 -21,-78 -25,-121 -1,19 -5,36 -10,52 -6,15 -10,32 -11,51 -10,60 -22,126 -37,196 -16,69 -45,127 -90,173 -45,46 -94,69 -146,69 -54,-1 -105,-15 -155,-44 -50,-27 -94,-66 -133,-112 -40,-48 -66,-93 -82,-137 -44,-125 -59,-263 -47,-412 12,-151 39,-288 83,-414 19,-52 45,-105 76,-156 31,-53 67,-97 110,-133 42,-35 91,-60 145,-73 55,-13 114,-8 179,14 86,31 141,83 165,156 23,73 28,150 15,231l35 -47c8,-10 22,-13 42,-9 20,5 32,14 33,29 8,45 8,91 -1,137 -9,44 -15,90 -17,136 -6,113 2,219 26,321 10,49 21,96 36,141 13,45 31,90 54,134 20,35 45,77 76,127 30,50 69,80 115,91 35,6 68,0 97,-20 30,-20 56,-45 79,-75 24,-32 42,-64 58,-97 14,-34 26,-63 36,-90 36,-95 60,-197 76,-305 23,-106 39,-214 47,-321 9,-106 12,-215 12,-325zm-1008 1005c44,-98 75,-209 92,-330 16,-122 29,-239 40,-352 -7,2 -12,0 -15,-7 1,-64 2,-128 4,-191 3,-64 -14,-123 -53,-178 -23,-34 -46,-53 -71,-57 -25,-6 -48,-1 -69,12 -23,14 -43,32 -63,56 -20,24 -37,49 -52,73 -54,94 -88,195 -102,302 -14,108 -23,213 -29,317 -1,61 1,123 4,183 5,61 20,119 47,175 9,15 25,39 48,71 22,32 45,52 66,59 36,6 67,-7 94,-40 26,-34 46,-65 59,-93z"/>
   <path class="fil1" d="M3418 9616c9,-64 2,-121 -21,-170 -24,-49 -65,-96 -125,-140 -59,-44 -152,-93 -277,-148 -125,-56 -218,-106 -278,-153 -60,-46 -101,-96 -124,-149 -24,-53 -30,-114 -20,-183 17,-110 76,-192 179,-247 103,-54 228,-70 377,-48 97,14 181,46 252,95 72,49 124,111 156,185 32,75 41,155 29,241l-56 -8c17,-114 -11,-213 -83,-299 -72,-87 -174,-139 -306,-159 -133,-20 -245,-6 -336,41 -90,47 -142,115 -155,204 -14,91 11,169 74,235 63,66 173,132 331,199 157,67 270,134 338,202 86,85 120,188 102,308 -11,76 -43,141 -94,193 -52,52 -119,88 -203,108 -83,20 -174,23 -273,8 -109,-16 -204,-48 -286,-98 -82,-49 -140,-111 -173,-184 -34,-74 -45,-156 -31,-248l56 9c-18,124 14,227 96,309 83,83 198,135 347,157 132,20 245,6 340,-42 95,-48 149,-121 164,-218zm116 -264c-14,-107 -7,-207 23,-298 30,-91 79,-165 148,-223 68,-58 150,-94 245,-106 94,-13 182,-1 263,35 81,36 148,95 202,174 53,80 87,173 102,279l7 50c15,108 7,208 -22,298 -30,91 -79,166 -147,224 -69,58 -151,93 -246,106 -95,12 -183,0 -265,-37 -81,-37 -148,-95 -201,-174 -53,-80 -87,-172 -102,-278l-7 -50zm62 36c13,94 43,177 91,250 47,73 107,127 179,162 72,35 150,47 236,35 128,-17 226,-79 294,-187 67,-107 91,-237 70,-389l-4 -32c-12,-92 -43,-175 -90,-249 -49,-73 -109,-127 -180,-162 -73,-35 -151,-47 -234,-36 -129,17 -227,80 -294,189 -68,109 -92,237 -72,386l4 33zm1350 490l-57 -2 59 -1609 57 2 -59 1609zm1130 63l12 -183c-38,60 -90,107 -157,139 -66,33 -148,46 -247,39 -124,-8 -214,-50 -271,-126 -57,-76 -81,-184 -74,-321l48 -730 56 4 -47 732c-7,120 14,213 63,278 49,65 125,101 226,108 109,7 198,-13 269,-60 71,-46 119,-118 144,-215l52 -797 57 4 -74 1131 -57 -3zm800 21c102,11 190,-6 262,-53 72,-48 117,-119 134,-214l56 6c-18,108 -69,192 -155,249 -86,58 -187,80 -303,68 -141,-16 -247,-79 -319,-190 -72,-111 -98,-255 -79,-430l4 -37c19,-171 75,-303 169,-396 95,-93 212,-132 351,-117 119,13 214,60 284,140 70,80 101,180 93,299l-56 -6c6,-102 -21,-188 -80,-257 -60,-69 -142,-109 -247,-121 -126,-13 -229,21 -310,104 -81,83 -131,206 -149,367l-4 37c-17,158 6,286 68,384 62,98 156,154 281,167zm767 120l-56 -7 131 -1126 57 7 -132 1126zm87 -1488c2,-15 9,-29 22,-39 12,-10 26,-14 42,-12 16,2 30,9 40,22 10,13 14,27 12,43 -2,16 -9,29 -22,38 -13,10 -27,14 -43,12 -16,-2 -29,-9 -39,-21 -10,-13 -13,-27 -12,-43zm276 923c15,-108 48,-201 101,-282 53,-80 120,-138 201,-176 82,-38 170,-50 265,-38 94,13 176,47 244,104 69,56 118,130 149,221 30,91 39,190 25,297l-7 49c-14,108 -47,202 -100,282 -52,80 -119,139 -200,176 -82,38 -170,51 -265,38 -95,-13 -177,-48 -246,-105 -69,-57 -118,-131 -149,-222 -30,-90 -38,-188 -24,-294l6 -50zm51 51c-13,94 -6,182 21,265 26,83 70,151 130,203 60,53 133,85 218,96 128,18 239,-17 333,-102 93,-86 150,-205 171,-357l4 -32c13,-92 5,-180 -21,-264 -28,-83 -71,-151 -131,-204 -61,-53 -132,-85 -216,-96 -129,-18 -240,17 -334,104 -94,87 -151,205 -171,354l-4 33zm1244 -141c44,-85 103,-151 179,-196 75,-46 157,-65 244,-59 121,9 208,49 262,123 54,72 77,178 67,317l-53 738 -57 -4 54 -740c8,-121 -10,-213 -55,-274 -44,-62 -120,-97 -226,-105 -97,-7 -184,22 -261,86 -76,64 -131,150 -164,258l-53 724 -56 -4 82 -1131 57 4 -20 263zm1446 1092c-90,-14 -169,-52 -237,-112 -69,-61 -117,-137 -147,-228 -29,-92 -36,-190 -20,-293l7 -47c17,-104 52,-195 107,-275 55,-80 122,-138 202,-176 80,-37 163,-48 249,-35 125,20 220,80 286,181 65,102 87,225 64,370l-9 59 -840 -132 -10 62c-14,91 -8,178 18,262 26,84 70,153 130,208 61,55 130,88 209,101 75,11 141,9 198,-8 57,-17 110,-49 158,-95l36 35c-103,107 -236,148 -401,123zm152 -1111c-109,-17 -208,9 -296,79 -89,69 -150,166 -182,290l781 122 2 -14c12,-76 7,-149 -15,-219 -22,-71 -58,-129 -109,-174 -50,-45 -111,-73 -181,-84zm1246 1063c22,-136 -79,-247 -303,-334 -135,-52 -226,-106 -273,-161 -47,-55 -64,-124 -51,-205 14,-82 59,-144 137,-186 78,-42 173,-54 284,-36 121,19 213,63 277,133 64,69 88,153 72,251l-57 -9c12,-76 -9,-144 -65,-204 -55,-61 -134,-100 -236,-116 -98,-16 -179,-7 -243,26 -64,34 -102,83 -112,147 -8,51 -4,91 13,124 17,32 47,63 92,94 45,31 111,65 200,101 90,36 159,73 208,111 49,38 82,78 100,122 18,44 22,94 13,152 -14,88 -62,153 -143,195 -81,43 -181,54 -298,35 -125,-20 -222,-65 -290,-134 -68,-69 -94,-149 -80,-238l56 9c-7,79 18,147 74,201 57,54 140,90 249,107 100,16 185,6 255,-30 70,-37 110,-88 121,-155zm862 -176c27,-179 85,-314 176,-403 90,-89 201,-124 332,-105 85,13 156,43 215,91 59,48 103,112 132,194l101 -678 56 8 -238 1593 -56 -8 27 -180c-48,58 -107,100 -179,125 -71,25 -149,31 -234,19 -130,-20 -225,-87 -284,-201 -60,-114 -77,-261 -50,-441l2 -14zm55 30c-24,159 -12,290 38,392 49,102 131,161 246,178 93,14 175,6 247,-26 72,-31 130,-84 173,-159l79 -527c-36,-199 -149,-312 -339,-341 -115,-17 -211,15 -288,96 -78,82 -130,210 -156,387zm1475 801c-91,-12 -171,-47 -241,-106 -69,-58 -120,-133 -152,-224 -32,-91 -41,-188 -28,-292l6 -47c14,-104 47,-197 100,-278 53,-81 119,-142 198,-181 79,-39 161,-53 247,-42 126,17 223,75 291,174 68,100 92,222 74,368l-8 59 -843 -109 -8 61c-12,92 -4,179 25,262 28,83 73,151 135,204 62,54 132,85 211,96 76,9 142,5 198,-13 56,-19 108,-52 156,-99l36 33c-100,111 -232,155 -397,134zm123 -1114c-109,-14 -208,14 -294,86 -87,72 -145,170 -175,295l784 101 2 -13c10,-77 3,-150 -21,-219 -24,-70 -61,-127 -113,-171 -52,-44 -113,-70 -183,-79zm1129 1239l-56 -6 171 -1601 57 6 -172 1601zm439 57l-57 -6 109 -1128 56 5 -108 1129zm57 -1489c1,-16 8,-29 20,-40 12,-10 27,-14 43,-13 16,2 29,9 39,21 11,13 15,27 13,43 -1,16 -8,29 -21,39 -12,10 -27,14 -43,13 -16,-2 -29,-9 -39,-21 -10,-12 -14,-26 -12,-42zm1122 1587l-57 -3 52 -761c7,-113 -12,-199 -58,-258 -45,-59 -121,-92 -229,-99 -124,-9 -229,39 -316,143 -51,62 -87,133 -107,211l-49 715 -58 -3 77 -1132 58 4 -18 267c44,-89 104,-156 178,-202 75,-45 155,-65 242,-59 95,7 171,33 228,79 58,46 93,117 105,213 39,-80 98,-141 177,-184 78,-43 164,-62 258,-56 122,9 210,49 265,122 55,73 78,179 69,317l-50 739 -56 -4 50 -734c8,-124 -11,-218 -56,-281 -46,-63 -122,-97 -229,-103 -138,-7 -250,40 -338,142 -50,59 -79,117 -87,174l-51 753zm1995 -450c-6,177 -48,316 -128,417 -80,102 -185,151 -316,146 -86,-2 -162,-22 -228,-60 -66,-36 -117,-86 -153,-149l-19 611 -57 -2 51 -1568 57 1 -7 202c41,-71 96,-124 163,-160 68,-36 144,-53 229,-51 132,5 235,59 308,163 73,104 107,248 101,432l-1 18zm-57 -24c5,-163 -23,-292 -85,-386 -61,-94 -150,-143 -267,-147 -95,-3 -176,19 -245,66 -67,48 -118,117 -150,208l-17 531c27,80 73,142 138,187 65,45 146,70 242,73 116,3 207,-40 275,-130 67,-90 103,-224 109,-402zm418 583l-57 0 9 -1134 57 1 -9 1133zm-74 -1488c0,-15 5,-29 17,-41 11,-11 24,-17 41,-17 16,1 30,6 41,18 11,11 17,25 17,41 0,16 -6,30 -18,41 -11,11 -25,16 -41,16 -16,0 -30,-6 -41,-17 -11,-11 -17,-25 -16,-41zm854 1496c-92,1 -176,-23 -253,-71 -77,-49 -138,-116 -182,-202 -44,-85 -66,-180 -67,-285l-1 -47c-1,-105 19,-201 61,-289 41,-88 98,-157 171,-206 72,-50 152,-75 239,-76 127,-1 230,43 311,132 82,90 123,208 124,354l1 60 -850 8 0 61c1,93 21,178 61,256 39,79 93,140 162,184 68,45 142,66 222,66 76,-1 141,-14 194,-40 54,-26 100,-66 141,-119l40 28c-83,123 -208,185 -374,186zm-32 -1120c-110,1 -203,43 -279,126 -77,83 -121,188 -133,316l791 -7 0 -14c-1,-77 -18,-149 -51,-214 -33,-66 -78,-117 -136,-154 -57,-36 -121,-54 -192,-53zm691 1031l807 -30 2 56 -883 32 -2 -45 707 -1059 -712 26 -2 -56 789 -29 1 49 -707 1056zm1769 -52c-17,-47 -29,-115 -35,-205 -40,75 -97,136 -172,181 -75,44 -161,70 -258,77 -105,7 -191,-16 -259,-69 -67,-52 -104,-124 -110,-216 -7,-104 34,-190 124,-259 90,-69 212,-109 367,-121l280 -18 -11 -166c-6,-95 -41,-166 -104,-215 -63,-48 -151,-69 -261,-61 -103,7 -188,39 -253,97 -66,57 -96,125 -91,203l-56 2c-7,-92 29,-173 105,-242 77,-69 174,-108 291,-116 122,-8 221,16 297,72 76,56 119,140 128,251l36 540c8,124 24,208 46,252l1 9 -65 4zm-469 -3c106,-7 196,-37 269,-90 73,-52 126,-123 159,-212l-18 -270 -262 18c-162,11 -284,51 -365,121 -66,57 -97,125 -91,204 4,69 36,126 94,170 58,45 130,65 214,59z"/>
   <g>
    <path class="fil2" d="M32646 0c1848,-5 714,3757 -7,3904 -339,69 -852,-1526 -945,-2425 -58,-561 289,-1477 952,-1479z"/>
    <path class="fil3" d="M35418 1162c1304,1309 -2168,3151 -2779,2742 -287,-192 485,-1680 1058,-2378 357,-436 1252,-834 1721,-364z"/>
    <path class="fil2" d="M36543 3948c-12,1848 -3764,678 -3904,-44 -66,-339 1534,-838 2434,-922 561,-53 1474,303 1470,966z"/>
    <path class="fil3" d="M35355 6709c-1321,1291 -3131,-2198 -2716,-2805 195,-285 1675,501 2368,1080 432,362 822,1261 348,1725z"/>
    <path class="fil2" d="M32558 7807c-1848,-29 -642,-3770 81,-3903 340,-62 823,1542 899,2443 48,561 -317,1471 -980,1460z"/>
    <path class="fil3" d="M29809 6593c-1279,-1333 2227,-3109 2830,-2689 284,198 -516,1670 -1103,2358 -365,429 -1268,810 -1727,331z"/>
    <path class="fil2" d="M28737 3786c47,-1847 3776,-606 3902,118 59,341 -1550,808 -2451,876 -562,42 -1468,-331 -1451,-994z"/>
    <path class="fil3" d="M29977 1049c1345,-1267 3088,2256 2662,2855 -200,282 -1665,-532 -2347,-1125 -425,-369 -798,-1276 -315,-1730z"/>
    <path class="fil0" d="M32192 3332c0,0 44,434 169,544 365,251 257,-925 226,-1106 -44,-264 -125,-552 -175,-620 -38,-52 -95,-50 -133,16 -45,81 -72,371 -84,646 -10,222 -10,435 -3,520z"/>
    <path class="fil0" d="M32682 3311c0,0 -276,337 -267,503 79,436 837,-469 944,-618 157,-218 304,-478 317,-561 10,-65 -31,-104 -105,-84 -89,25 -314,210 -518,396 -164,149 -315,299 -371,364z"/>
    <path class="fil0" d="M33043 3644c0,0 -434,41 -545,165 -254,363 922,264 1104,234 264,-42 552,-120 621,-170 53,-38 51,-95 -15,-133 -80,-46 -370,-75 -646,-89 -222,-11 -434,-13 -519,-7z"/>
    <path class="fil0" d="M33060 4134c0,0 -334,-279 -501,-270 -436,76 463,840 612,948 216,158 475,308 558,321 65,11 104,-30 84,-104 -24,-89 -207,-315 -391,-521 -149,-165 -297,-318 -362,-374z"/>
    <path class="fil0" d="M32725 4492c0,0 -38,-434 -161,-546 -362,-256 -271,921 -243,1102 41,265 117,554 166,623 38,53 95,52 133,-14 47,-80 78,-370 94,-645 13,-222 16,-434 11,-520z"/>
    <path class="fil0" d="M32234 4507c0,0 282,-333 274,-499 -72,-437 -844,456 -953,604 -159,215 -310,473 -325,556 -11,64 30,104 104,85 90,-23 317,-205 524,-388 166,-147 320,-294 376,-358z"/>
    <path class="fil0" d="M31879 4168c0,0 434,-34 547,-157 259,-359 -919,-277 -1100,-250 -266,38 -555,113 -624,161 -54,37 -53,95 13,134 79,47 369,80 644,98 222,14 434,19 520,14z"/>
    <path class="fil0" d="M31868 3678c0,0 331,284 497,277 437,-69 -451,-847 -597,-957 -215,-161 -471,-314 -554,-329 -64,-12 -105,29 -86,103 23,90 203,319 384,527 146,167 292,322 356,379z"/>
    <path class="fil4 str0" d="M33275 2551c0,0 -616,906 -737,1375"/>
    <circle class="fil5" cx="32538" cy="3926" r="132"/>
    <path class="fil4 str1" d="M33975 2762c0,0 -1089,708 -1437,1164"/>
    <path class="fil6" d="M33258 2429c64,-121 135,-414 380,-281 159,165 -138,410 -311,436 -118,17 -117,-62 -69,-155z"/>
    <path class="fil6" d="M33988 2634c125,-104 337,-390 544,-133 98,254 -340,385 -540,333 -137,-35 -100,-121 -4,-200z"/>
   </g>
  </g>
 </g>
</svg>
