
<svg height="25" viewBox="0 -34 512 512" width="25" xmlns="http://www.w3.org/2000/svg"><g fill="#96d1f3"><path d="m495.304688 90.140625h-478.609376c-3.589843-3.589844-5.605468-5.605469-9.195312-9.195313v-64.25c3.589844-3.589843 5.605469-5.605468 9.195312-9.195312h478.609376c3.589843 3.589844 5.605468 5.605469 9.195312 9.195312v64.25c-3.589844 3.589844-5.605469 5.605469-9.195312 9.195313zm0 0"/><path d="m495.304688 262.886719h-478.609376c-3.589843-3.59375-5.605468-5.605469-9.195312-9.199219v-64.246094c3.589844-3.59375 5.605469-5.605468 9.195312-9.199218h478.609376c3.589843 3.59375 5.605468 5.605468 9.195312 9.199218v64.246094c-3.589844 3.59375-5.605469 5.605469-9.195312 9.199219zm0 0"/><path d="m495.304688 435.628906h-478.609376c-3.589843-3.59375-5.605468-5.605468-9.195312-9.195312v-64.25c3.589844-3.589844 5.605469-5.605469 9.195312-9.195313h478.609376c3.589843 3.589844 5.605468 5.605469 9.195312 9.195313v64.25c-3.589844 3.589844-5.605469 5.601562-9.195312 9.195312zm0 0"/></g><path d="m37.5 80.945312v-64.25c3.589844-3.589843 5.605469-5.605468 9.195312-9.195312h-30c-3.589843 3.589844-5.605468 5.605469-9.195312 9.195312v64.25c3.589844 3.589844 5.605469 5.605469 9.195312 9.195313h30c-3.589843-3.589844-5.605468-5.605469-9.195312-9.195313zm0 0" fill="#3ca6e6"/><path d="m37.5 253.6875v-64.25l9.195312-9.195312h-30l-9.195312 9.195312v64.25l9.195312 9.199219h30zm0 0" fill="#3ca6e6"/><path d="m37.5 362.183594 9.195312-9.199219h-30l-9.195312 9.199219v64.246094c3.589844 3.59375 5.605469 5.605468 9.195312 9.199218h30c-3.589843-3.59375-5.605468-5.605468-9.195312-9.199218zm0 0" fill="#3ca6e6"/><path d="m278.488281 229.0625h-15v-15h15zm-25 0h-15v-15h15zm0 0" fill="#fff"/><path d="m498.410156 0h-484.820312l-13.589844 13.589844v70.460937l13.589844 13.589844h71.554687v-15h-65.339843l-4.804688-4.800781v-58.035156l4.804688-4.804688h472.390624l4.804688 4.804688v58.035156l-4.804688 4.800781h-387.050781v15h393.265625l13.589844-13.589844v-70.460937zm0 0"/><path d="m13.589844 172.742188-13.589844 13.589843v70.464844l13.589844 13.589844h400.695312v-15h-394.480468l-4.804688-4.804688v-58.035156l4.804688-4.804687h472.390624l4.804688 4.804687v58.035156l-4.804688 4.804688h-57.910156v15h64.125l13.589844-13.589844v-70.464844l-13.589844-13.589843zm0 0"/><path d="m13.589844 345.484375-13.589844 13.589844v70.464843l13.589844 13.589844h484.820312l13.589844-13.589844v-70.464843l-13.589844-13.585938h-484.820312zm483.410156 77.839844-4.804688 4.804687h-472.390624l-4.804688-4.804687v-58.035157l4.804688-4.804687h472.394531l4.800781 4.804687zm0 0"/></svg>