
<svg height="511pt" viewBox="0 -42 511.99906 511" width="511pt" xmlns="http://www.w3.org/2000/svg" xmlns:xlink="http://www.w3.org/1999/xlink"><linearGradient id="a"><stop offset="0" stop-color="#662d91"/><stop offset=".437" stop-color="#3873b3"/><stop offset="1" stop-color="#00c9dd"/></linearGradient><linearGradient id="b" gradientTransform="matrix(1.066727 0 0 -1.066727 .000129 482.6906)" gradientUnits="userSpaceOnUse" x1="18.7245" x2="358.3929" xlink:href="#a" y1="321.4023" y2="-18.266"/><linearGradient id="c" gradientTransform="matrix(1.066727 0 0 -1.066727 .000129 482.6906)" gradientUnits="userSpaceOnUse" x1="18.7069" x2="358.3753" xlink:href="#a" y1="321.3848" y2="-18.2836"/><linearGradient id="d" gradientTransform="matrix(1.066727 0 0 -1.066727 .000129 482.6906)" gradientUnits="userSpaceOnUse" x1="115.7632" x2="455.4316" xlink:href="#a" y1="418.4411" y2="78.7727"/><path d="m153.632812 392.996094c65.976563 0 119.457032-53.480469 119.457032-119.457032 0-65.972656-53.484375-119.453124-119.457032-119.453124-65.972656 0-119.453124 53.480468-119.453124 119.453124.070312 65.945313 53.511718 119.386719 119.453124 119.457032zm0-221.847656c56.550782 0 102.390626 45.84375 102.390626 102.390624 0 56.550782-45.839844 102.390626-102.390626 102.390626-56.546874 0-102.386718-45.839844-102.386718-102.390626.058594-56.523437 45.863281-102.328124 102.386718-102.390624zm0 0" fill="url(#b)"/><path d="m145.101562 340.765625v18.097656h17.066407v-18.097656c20.636719-4.878906 33.40625-25.566406 28.527343-46.203125-4.074218-17.210938-19.375-29.414062-37.0625-29.554688-11.78125 0-21.328124-9.550781-21.328124-21.332031s9.546874-21.332031 21.328124-21.332031 21.332032 9.550781 21.332032 21.332031v4.265625h17.066406v-4.265625c-.035156-17.890625-12.421875-33.386719-29.863281-37.363281v-18.097656h-17.066407v18.097656c-20.636718 4.878906-33.40625 25.566406-28.527343 46.203125 4.074219 17.210937 19.375 29.414063 37.058593 29.554687 11.78125 0 21.332032 9.550782 21.332032 21.332032s-9.550782 21.332031-21.332032 21.332031-21.328124-9.550781-21.328124-21.332031v-4.265625h-17.066407v4.265625c.035157 17.894531 12.417969 33.390625 29.863281 37.363281zm0 0" fill="url(#c)"/><path d="m153.632812 427.125c2.886719 0 5.691407-.273438 8.535157-.433594v.433594h298.636719v-136.519531h34.128906v-51.195313h-34.128906v-68.261718h-25.597657v-17.066407h51.195313v-51.195312h-25.597656v-17.0625h25.597656v-34.128907h25.597656v-51.195312h-298.636719v34.128906h-25.597656v34.128906h-25.597656v51.195313h25.597656v3.960937c-82.667969-18.886718-164.988281 32.816407-183.875 115.480469-18.886719 82.664063 32.816406 164.988281 115.480469 183.875 11.238281 2.566407 22.734375 3.859375 34.261718 3.855469zm290.109376-17.066406h-219.824219c.398437-.203125.765625-.46875 1.167969-.683594 2.757812-1.449219 5.402343-3.070312 8.054687-4.683594 1.707031-1.046875 3.5-2.039062 5.195313-3.15625 2.5625-1.707031 5.019531-3.582031 7.476562-5.441406 1.40625-1.058594 2.890625-1.988281 4.265625-3.097656h193.660156v17.0625zm0-34.128906h-175.773438c.703125-.785157 1.339844-1.636719 2.023438-2.441407 1.289062-1.492187 2.5625-2.996093 3.773437-4.539062s2.558594-3.320313 3.742187-5c1.1875-1.679688 2.5625-3.335938 3.730469-5.117188h162.5v17.097657zm0-34.128907h-152.617188c1.09375-2.1875 2.085938-4.386719 3.074219-6.597656.484375-1.117187.988281-2.226563 1.449219-3.359375.992187-2.367188 1.945312-4.726562 2.800781-7.109375h145.292969zm0-34.132812h-140.394532c.058594-.269531.074219-.5625.136719-.851563 1.199219-5.351562 2.109375-10.761718 2.730469-16.210937h137.527344zm34.128906-51.195313v17.066406h-170.652344c0-4.214843-.253906-8.53125-.648438-12.839843-.117187-1.410157-.203124-2.824219-.359374-4.222657h171.660156zm-34.128906-17.0625h-140.472657c-.652343-2.90625-1.398437-5.792968-2.234375-8.652344-.667968-2.296874-1.410156-4.546874-2.175781-6.824218-.191406-.539063-.335937-1.085938-.53125-1.625h145.410156v17.101562zm0-51.195312v17.066406h-152.632813c-.296875-.597656-.640625-1.160156-.9375-1.707031-.964844-1.871094-1.9375-3.710938-2.96875-5.539063-1.675781-2.960937-3.4375-5.859375-5.292969-8.695312-.238281-.347656-.425781-.734375-.664062-1.082032h162.492187v-.042968zm-25.601563-17.066406h-150.171875c-1.097656-1.234376-2.300781-2.355469-3.410156-3.546876-1.109375-1.195312-2.425782-2.558593-3.6875-3.804687-2.484375-2.433594-5.066406-4.746094-7.679688-6.996094-.792968-.675781-1.535156-1.402343-2.335937-2.058593-.257813-.210938-.496094-.453126-.753907-.65625h168.039063zm-187.714844-153.585938h264.507813v17.066406h-264.507813zm-25.597656 34.132812h264.507813v17.066407h-264.507813zm-25.597656 51.195313v-17.066406h264.507812v17.066406zm25.597656 25.835937v-8.773437h264.507813v17.066406h-245.375c-3.328126-1.707031-6.726563-3.292969-10.15625-4.761719-.632813-.269531-1.28125-.492187-1.917969-.757812-2.339844-.964844-4.6875-1.9375-7.058594-2.773438zm-51.195313 8.292969c13.691407-.007812 27.300782 2.046875 40.378907 6.101563 1.277343.398437 2.558593.9375 3.804687 1.382812 2.882813.988282 5.765625 1.960938 8.53125 3.128906 1.707032.734376 3.414063 1.621094 5.121094 2.425782 2.285156 1.074218 4.597656 2.089844 6.824219 3.285156 1.375.742188 2.671875 1.613281 4.011719 2.398438 2.421874 1.414062 4.851562 2.808593 7.175781 4.359374 1.339843.894532 2.558593 1.902344 3.878906 2.839844 2.195313 1.589844 4.394531 3.148438 6.484375 4.855469 1.582031 1.289063 3.046875 2.699219 4.566406 4.054687 1.65625 1.484376 3.351563 2.925782 4.929688 4.484376 1.808594 1.785156 3.507812 3.703124 5.222656 5.597656 1.203125 1.316406 2.449219 2.5625 3.601562 3.953125.851563 1.046875 1.707032 2.148437 2.558594 3.222656 1.507813 1.917969 2.972656 3.878906 4.394532 5.878906.988281 1.410157 1.980468 2.824219 2.917968 4.265625 1.109375 1.707032 2.132813 3.414063 3.15625 5.199219 1.929688 3.285156 3.738282 6.644531 5.394532 10.101563.535156 1.117187 1.101562 2.21875 1.613281 3.34375.851562 1.980468 1.707031 3.976562 2.492187 5.972656.492188 1.253906.9375 2.558594 1.390625 3.804687 1.339844 3.753907 2.558594 7.570313 3.523438 11.433594.246093.9375.503906 1.878906.734375 2.832031.578125 2.457032 1.117187 4.925782 1.558594 7.414063v.265625c.71875 4.042968 1.246093 7.9375 1.613281 11.742187.359375 4 .617187 8.046875.617187 12.140625 0 2.472656-.242187 4.898438-.378906 7.335938v.691406c-.320312 5.394531-.9375 10.769531-1.851562 16.09375-.050782.238281-.066407.496094-.117188.734375-.867188 4.789063-2.007812 9.527344-3.414062 14.191406-.136719.441407-.214844.910157-.351563 1.355469-.074219.253906-.1875.511719-.261719.769531-1.078125 3.410157-2.324218 6.660157-3.636718 9.914063-.535157 1.296875-1.066407 2.558594-1.636719 3.871094-.914063 2.074218-1.929688 4.078124-2.945313 6.09375-1.550781 3.070312-3.230468 6.105468-5.035156 9.105468-.570312.945313-1.125 1.894532-1.703125 2.816406-1.488281 2.335938-3.046875 4.605469-4.652344 6.824219-.777343 1.074219-1.578125 2.140625-2.390625 3.191407-1.441406 1.886718-2.898437 3.753906-4.425781 5.546874-1.527344 1.792969-3.019531 3.414063-4.582031 5.042969-1.050782 1.117188-2.066406 2.285157-3.15625 3.371094-2.792969 2.765625-5.703125 5.410156-8.730469 7.933594-.707031.589843-1.449219 1.128906-2.167969 1.707031-2.371094 1.894531-4.804687 3.714844-7.304687 5.460938-1.097657.769531-2.21875 1.511718-3.34375 2.246093-2.304688 1.5-4.652344 2.921875-7.046875 4.265625-1.136719.636719-2.246094 1.320313-3.414063 1.925782-3.261719 1.707031-6.585937 3.316406-9.984375 4.820312-1.484375.640625-3.011718 1.179688-4.523437 1.757812-2.046875.804688-4.109375 1.582032-6.210938 2.28125-1.9375.648438-3.890625 1.25-5.859375 1.808594-1.707031.484375-3.414062.851563-5.121094 1.3125-5.351562 1.328125-10.78125 2.328125-16.253906 2.996094l-3.292968.382812c-4.171876.453126-8.398438.710938-12.707032.710938-75.398437 0-136.519531-61.125-136.519531-136.519531 0-75.398438 61.125-136.523438 136.523437-136.523438zm0 0" fill="url(#d)"/></svg>