
<svg height="511pt" viewBox="0 -25 511.99943 511" width="511pt" xmlns="http://www.w3.org/2000/svg" xmlns:xlink="http://www.w3.org/1999/xlink"><linearGradient id="a"><stop offset="0" stop-color="#662d91"/><stop offset=".437" stop-color="#3873b3"/><stop offset="1" stop-color="#00c9dd"/></linearGradient><linearGradient id="b" gradientTransform="matrix(1.066827 0 0 -1.066827 -.00005 482.208345)" gradientUnits="userSpaceOnUse" x1="62.0042" x2="465.9589" xlink:href="#a" y1="464.5912" y2="60.6286"/><linearGradient id="c" gradientTransform="matrix(1.066827 0 0 -1.066827 -.00005 482.208345)" gradientUnits="userSpaceOnUse" x1="-76.375" x2="327.5796" xlink:href="#a" y1="326.212" y2="-77.7507"/><linearGradient id="d" gradientTransform="matrix(1.066827 0 0 -1.066827 -.00005 482.208345)" gradientUnits="userSpaceOnUse" x1="60.0296" x2="463.9922" xlink:href="#a" y1="462.6165" y2="58.6619"/><linearGradient id="e" gradientTransform="matrix(1.066827 0 0 -1.066827 -.00005 482.208345)" gradientUnits="userSpaceOnUse" x1="106.4282" x2="510.3828" xlink:href="#a" y1="509.0151" y2="105.0525"/><path d="m259.824219 70.667969c-2.398438-1.199219-5.226563-1.199219-7.628907 0l-85.332031 42.667969c-2.894531 1.445312-4.71875 4.402343-4.71875 7.636718v110.933594c0 4.714844 3.820313 8.535156 8.535157 8.535156h170.664062c4.714844 0 8.535156-3.820312 8.535156-8.535156v-110.933594c0-3.234375-1.824218-6.191406-4.71875-7.636718zm-20.878907 152.703125v-42.664063h34.132813v42.664063zm93.867188 0h-42.667969v-51.199219c0-4.710937-3.820312-8.53125-8.535156-8.53125h-51.199219c-4.710937 0-8.53125 3.820313-8.53125 8.53125v51.199219h-42.667968v-97.125l76.800781-38.398438 76.796875 38.398438v97.125zm0 0" fill="url(#b)"/><path d="m223.386719 337.90625c-12.492188-29.355469-32.550781-54.871094-58.128907-73.941406l-11.261718-8.371094c-9.207032-6.921875-22.148438-5.820312-30.054688 2.5625-7.238281 7.636719-8.722656 19.070312-3.679687 28.304688l12.015625 21.777343-53.015625-33.023437-35.839844-96.769532c-4.058594-11.5-16.632813-17.570312-28.160156-13.59375-11.238281 4.0625-17.527344 16.019532-14.507813 27.578126l25.191406 98.136718c3.425782 13.328125 9.949219 25.664063 19.035157 36l72.578125 82.210938c2.871094 3.285156 4.445312 7.503906 4.425781 11.867187v33.128907c0 4.710937 3.820313 8.53125 8.535156 8.53125h99.890625c4.714844 0 8.535156-3.820313 8.535156-8.53125v-61.277344c.027344-12.027344-2.40625-23.9375-7.152343-34.988282zm-1.507813 107.332031h-82.824218v-24.59375c.019531-8.527343-3.074219-16.769531-8.707032-23.175781l-72.574218-82.199219c-7.316407-8.332031-12.554688-18.273437-15.292969-29.015625l-25.199219-98.074218c-.847656-2.949219.679688-6.066407 3.535156-7.199219 2.753906-.859375 5.6875.664062 6.570313 3.414062l36.855469 99.496094c.660156 1.773437 1.890624 3.273437 3.5 4.265625l83.242187 51.859375c3.984375 2.515625 9.253906 1.324219 11.769531-2.664063 1.664063-2.636718 1.757813-5.96875.242188-8.695312l-27.757813-50.429688c-1.484375-2.675781-1.070312-6 1.023438-8.226562 1.972656-2.164062 5.265625-2.464844 7.59375-.691406l11.265625 8.363281c23.148437 17.269531 41.300781 40.375 52.609375 66.949219l8.40625 19.628906c3.8125 8.925781 5.765625 18.535156 5.742187 28.246094zm0 0" fill="url(#c)"/><path d="m496.769531 164.851562c-11.527343-3.976562-24.101562 2.09375-28.160156 13.59375l-35.839844 96.765626-53.023437 33.023437 11.988281-21.777344c5.042969-9.226562 3.5625-20.65625-3.667969-28.296875-7.914062-8.382812-20.859375-9.484375-30.074218-2.558594l-11.253907 8.355469c-25.574219 19.074219-45.632812 44.59375-58.128906 73.949219l-8.40625 19.625c-4.746094 11.050781-7.175781 22.960938-7.152344 34.988281v61.25c0 4.714844 3.820313 8.535157 8.535157 8.535157h99.917968c4.710938 0 8.53125-3.820313 8.53125-8.535157v-33.125c-.019531-4.367187 1.558594-8.589843 4.4375-11.871093l72.535156-82.207032c9.097657-10.347656 15.625-22.699218 19.042969-36.046875l25.191407-98.089843c3.023437-11.550782-3.25-23.503907-14.472657-27.578126zm-2.03125 23.328126-25.199219 98.132812c-2.734374 10.746094-7.980468 20.6875-15.300781 29.015625l-72.53125 82.199219c-5.640625 6.402344-8.738281 14.648437-8.714843 23.179687v24.53125h-82.847657v-52.742187c-.015625-9.703125 1.945313-19.308594 5.765625-28.230469l8.40625-19.625c11.308594-26.578125 29.460938-49.683594 52.609375-66.960937l11.253907-8.34375c2.335937-1.773438 5.636718-1.472657 7.613281.691406 2.089843 2.226562 2.5 5.546875 1.015625 8.214844l-27.785156 50.417968c-2.273438 4.128906-.769532 9.316406 3.359374 11.589844 2.707032 1.488281 6.007813 1.402344 8.632813-.234375l83.242187-51.855469c1.605469-.996094 2.835938-2.496094 3.496094-4.265625l36.855469-99.5c.890625-2.738281 3.808594-4.257812 6.5625-3.414062 2.867187 1.121093 4.414063 4.238281 3.566406 7.199219zm0 0" fill="url(#d)"/><path d="m405.003906 74.996094-148.992187-74.496094-148.992188 74.496094 26.597657 39.910156 122.394531-61.191406 122.394531 61.191406zm-148.992187-40.363282-116.539063 58.273438-7.535156-11.289062 124.074219-62.039063 124.074219 62.039063-7.535157 11.289062zm0 0" fill="url(#e)"/></svg>