
<svg height="512pt" viewBox="0 -17 512.00011 512" width="512pt" xmlns="http://www.w3.org/2000/svg" xmlns:xlink="http://www.w3.org/1999/xlink"><linearGradient id="a"><stop offset="0" stop-color="#662d91"/><stop offset=".437" stop-color="#3873b3"/><stop offset="1" stop-color="#00c9dd"/></linearGradient><linearGradient id="b" gradientTransform="matrix(1.087797 0 0 -1.087797 .000114 499.710775)" gradientUnits="userSpaceOnUse" x1="42.7405" x2="436.5207" xlink:href="#a" y1="431.3827" y2="37.6025"/><linearGradient id="c" gradientTransform="matrix(1.087797 0 0 -1.087797 .000114 499.710775)" gradientUnits="userSpaceOnUse" x1="75.9049" x2="469.693" xlink:href="#a" y1="464.5471" y2="70.7669"/><path d="m237.917969 191.421875c-16.820313 0-30.457031 13.636719-30.457031 30.453125 0 16.820312 13.636718 30.457031 30.457031 30.457031 16.816406 0 30.453125-13.636719 30.453125-30.457031 0-16.816406-13.636719-30.453125-30.453125-30.453125zm0 43.507813c-7.210938 0-13.054688-5.84375-13.054688-13.054688 0-7.207031 5.84375-13.050781 13.054688-13.050781 7.207031 0 13.050781 5.84375 13.050781 13.050781 0 7.210938-5.84375 13.054688-13.050781 13.054688zm0 0" fill="url(#b)"/><path d="m99.925781 148.5-50.570312 19.429688c-39.667969 15.253906-59.460938 59.773437-44.207031 99.441406 8.675781 22.566406 27.453124 39.742187 50.699218 46.378906l24.179688 6.910156-20.125 68.433594c-1.355469 4.609375 1.28125 9.445312 5.890625 10.800781.066406.019531.132812.039063.199219.058594l261.03125 69.605469c4.5625 1.21875 9.257812-1.425782 10.589843-5.949219l5.273438-17.941406 105.640625 32.507812c.832031.25 1.695312.378907 2.566406.382813 3.84375 0 7.230469-2.523438 8.335938-6.207032l26.101562-87.007812c1.375-4.582031-1.207031-9.410156-5.777344-10.816406l-106.308594-32.707032 7.683594-26.101562c1.355469-4.609375-1.28125-9.445312-5.890625-10.804688-.066406-.019531-.132812-.035156-.199219-.054687l-94.949218-25.320313 14.792968-44.375c7.578126-22.671874.511719-47.667968-17.8125-63.019531v-102.535156h78.3125c4.804688 0 8.699219-3.898437 8.699219-8.703125v-43.503906h147.917969v-17.402344h-504.660156v17.402344h121.8125v43.503906c0 4.808594 3.894531 8.703125 8.703125 8.703125h17.203125c-1.953125 34.617187-23.296875 65.160156-55.132813 78.890625zm345.355469 310.464844-96.488281-29.691406 21.101562-70.335938 96.484375 29.6875zm-121.964844-8.398438-244.203125-65.109375 38.597657-131.222656 53.078124 14.15625 95.84375 25.554687 95.285157 25.382813zm-44.949218-220.929687-15.132813 45.386719-45.164063-12.050782-33.875-9.03125 16.699219-50.117187c6.859375-20.5625 28.582031-32.183594 49.492188-26.476563 21.75 5.933594 34.570312 28.378906 28.632812 50.132813-.195312.722656-.414062 1.445312-.652343 2.15625zm-18.699219-67.542969c-1.546875-.558594-3.105469-1.097656-4.714844-1.542969-9.847656-2.675781-20.226563-2.699219-30.089844-.066406v-90.875h34.804688zm-113.113281-144.691406h200.125v34.804687h-200.125zm25.902343 52.207031h35.003907v98.609375c-10.84375 7.160156-18.96875 17.761719-23.066407 30.09375l-17.042969 51.136719-53.355468-14.226563c-4.5625-1.214844-9.257813 1.425782-10.589844 5.953125l-18.472656 62.8125-24.3125-6.960937c-31.625-9.027344-49.945313-41.980469-40.917969-73.605469 5.136719-18 18.433594-32.535156 35.90625-39.246094l50.867187-19.570312c38.371094-16.421875 63.992188-53.308594 65.980469-94.996094zm0 0" fill="url(#c)"/></svg>